<?xml version="1.0" encoding="UTF-8" standalone="no"?>
<svg
   version="1.1"
   viewBox="0.00 0.00 200.00 200.00"
   id="svg94"
   sodipodi:docname="masterchief-grey.svg"
   inkscape:version="1.4 (e7c3feb1, 2024-10-09)"
   xmlns:inkscape="http://www.inkscape.org/namespaces/inkscape"
   xmlns:sodipodi="http://sodipodi.sourceforge.net/DTD/sodipodi-0.dtd"
   xmlns:xlink="http://www.w3.org/1999/xlink"
   xmlns="http://www.w3.org/2000/svg"
   xmlns:svg="http://www.w3.org/2000/svg">
  <defs
     id="defs94">
    <color-profile
       name="Gray-Tone"
       xlink:href="file:///Library/ColorSync/Profiles/Gray%20Tone.icc"
       id="color-profile2" />
    <linearGradient
       id="swatch18"
       inkscape:swatch="solid">
      <stop
         style="stop-color:#373737;stop-opacity:1;"
         offset="0"
         id="stop18" />
    </linearGradient>
    <linearGradient
       id="swatch17"
       inkscape:swatch="solid">
      <stop
         style="stop-color:#303030;stop-opacity:1;"
         offset="0"
         id="stop17" />
    </linearGradient>
    <linearGradient
       id="swatch16"
       inkscape:swatch="solid">
      <stop
         style="stop-color:#7c7c7c;stop-opacity:1;"
         offset="0"
         id="stop16" />
    </linearGradient>
    <linearGradient
       id="swatch15"
       inkscape:swatch="solid">
      <stop
         style="stop-color:#a2a2a2;stop-opacity:1;"
         offset="0"
         id="stop15" />
    </linearGradient>
    <linearGradient
       id="swatch14"
       inkscape:swatch="solid">
      <stop
         style="stop-color:#555555;stop-opacity:1;"
         offset="0"
         id="stop14" />
    </linearGradient>
    <linearGradient
       id="swatch13"
       inkscape:swatch="solid">
      <stop
         style="stop-color:#868684;stop-opacity:1;"
         offset="0"
         id="stop13" />
    </linearGradient>
    <linearGradient
       id="swatch12"
       inkscape:swatch="solid">
      <stop
         style="stop-color:#818181;stop-opacity:1;"
         offset="0"
         id="stop12" />
    </linearGradient>
    <linearGradient
       id="swatch11"
       inkscape:swatch="solid">
      <stop
         style="stop-color:#414141;stop-opacity:1;"
         offset="0"
         id="stop11" />
    </linearGradient>
    <linearGradient
       id="swatch10"
       inkscape:swatch="solid">
      <stop
         style="stop-color:#4c4c4c;stop-opacity:1;"
         offset="0"
         id="stop10" />
    </linearGradient>
    <linearGradient
       id="swatch9"
       inkscape:swatch="solid">
      <stop
         style="stop-color:#bbbbbb;stop-opacity:1;"
         offset="0"
         id="stop9" />
    </linearGradient>
    <linearGradient
       id="swatch8"
       inkscape:swatch="solid">
      <stop
         style="stop-color:#717171;stop-opacity:1;"
         offset="0"
         id="stop8" />
    </linearGradient>
    <linearGradient
       id="swatch7"
       inkscape:swatch="solid">
      <stop
         style="stop-color:#636363;stop-opacity:1;"
         offset="0"
         id="stop7" />
    </linearGradient>
    <linearGradient
       id="swatch6"
       inkscape:swatch="solid">
      <stop
         style="stop-color:#a5a5a5;stop-opacity:1;"
         offset="0"
         id="stop6" />
    </linearGradient>
    <linearGradient
       id="swatch5"
       inkscape:swatch="solid">
      <stop
         style="stop-color:#414141;stop-opacity:1;"
         offset="0"
         id="stop5" />
    </linearGradient>
    <linearGradient
       id="swatch4"
       inkscape:swatch="solid">
      <stop
         style="stop-color:#636363;stop-opacity:1;"
         offset="0"
         id="stop4" />
    </linearGradient>
    <linearGradient
       id="swatch3"
       inkscape:swatch="solid">
      <stop
         style="stop-color:#292929;stop-opacity:1;"
         offset="0"
         id="stop3" />
    </linearGradient>
    <linearGradient
       id="swatch2"
       inkscape:swatch="solid">
      <stop
         style="stop-color:#000000;stop-opacity:1;"
         offset="0"
         id="stop2" />
    </linearGradient>
    <linearGradient
       id="swatch1"
       inkscape:swatch="solid">
      <stop
         style="stop-color:#262626;stop-opacity:1;"
         offset="0"
         id="stop1" />
    </linearGradient>
    <filter
       style="color-interpolation-filters:sRGB;"
       inkscape:label="Greyscale"
       id="filter710"
       x="0"
       y="0"
       width="1"
       height="1">
      <feColorMatrix
         values="0.31 0.76 -0.03 0 0 0.31 0.76 -0.03 0 0 0.31 0.76 -0.03 0 0 0 0 0 1 0 "
         id="feColorMatrix710"
         result="fbSourceGraphic" />
      <feColorMatrix
         result="fbSourceGraphicAlpha"
         in="fbSourceGraphic"
         values="0 0 0 -1 0 0 0 0 -1 0 0 0 0 -1 0 0 0 0 1 0"
         id="feColorMatrix725" />
      <feColorMatrix
         id="feColorMatrix726"
         values="0.31 0.76 -0.03 0 0 0.31 0.76 -0.03 0 0 0.31 0.76 -0.03 0 0 0 0 0 1 0 "
         in="fbSourceGraphic" />
    </filter>
    <filter
       style="color-interpolation-filters:sRGB;"
       inkscape:label="Greyscale"
       id="filter711"
       x="-0.023060106"
       y="-0.016597825"
       width="1.0605265"
       height="1.0582184">
      <feColorMatrix
         values="0.31 0.76 -0.03 0 0 0.31 0.76 -0.03 0 0 0.31 0.76 -0.03 0 0 0 0 0 1 0 "
         id="feColorMatrix711"
         result="fbSourceGraphic" />
      <feColorMatrix
         result="fbSourceGraphicAlpha"
         in="fbSourceGraphic"
         values="0 0 0 -1 0 0 0 0 -1 0 0 0 0 -1 0 0 0 0 1 0"
         id="feColorMatrix727" />
      <feColorMatrix
         id="feColorMatrix728"
         values="0.31 0.76 -0.03 0 0 0.31 0.76 -0.03 0 0 0.31 0.76 -0.03 0 0 0 0 0 1 0 "
         in="fbSourceGraphic" />
    </filter>
    <filter
       style="color-interpolation-filters:sRGB;"
       inkscape:label="Greyscale"
       id="filter712"
       x="0"
       y="0"
       width="1"
       height="1">
      <feColorMatrix
         values="0.31 0.76 -0.03 0 0 0.31 0.76 -0.03 0 0 0.31 0.76 -0.03 0 0 0 0 0 1 0 "
         id="feColorMatrix712"
         result="fbSourceGraphic" />
      <feColorMatrix
         result="fbSourceGraphicAlpha"
         in="fbSourceGraphic"
         values="0 0 0 -1 0 0 0 0 -1 0 0 0 0 -1 0 0 0 0 1 0"
         id="feColorMatrix729" />
      <feColorMatrix
         id="feColorMatrix730"
         values="0.31 0.76 -0.03 0 0 0.31 0.76 -0.03 0 0 0.31 0.76 -0.03 0 0 0 0 0 1 0 "
         in="fbSourceGraphic" />
    </filter>
    <filter
       style="color-interpolation-filters:sRGB;"
       inkscape:label="Greyscale"
       id="filter713"
       x="0"
       y="0"
       width="1"
       height="1">
      <feColorMatrix
         values="0.31 0.76 -0.03 0 0 0.31 0.76 -0.03 0 0 0.31 0.76 -0.03 0 0 0 0 0 1 0 "
         id="feColorMatrix713"
         result="fbSourceGraphic" />
      <feColorMatrix
         result="fbSourceGraphicAlpha"
         in="fbSourceGraphic"
         values="0 0 0 -1 0 0 0 0 -1 0 0 0 0 -1 0 0 0 0 1 0"
         id="feColorMatrix731" />
      <feColorMatrix
         id="feColorMatrix732"
         values="0.31 0.76 -0.03 0 0 0.31 0.76 -0.03 0 0 0.31 0.76 -0.03 0 0 0 0 0 1 0 "
         in="fbSourceGraphic" />
    </filter>
    <filter
       style="color-interpolation-filters:sRGB;"
       inkscape:label="Greyscale"
       id="filter714"
       x="0"
       y="0"
       width="1"
       height="1">
      <feColorMatrix
         values="0.31 0.76 -0.03 0 0 0.31 0.76 -0.03 0 0 0.31 0.76 -0.03 0 0 0 0 0 1 0 "
         id="feColorMatrix714"
         result="fbSourceGraphic" />
      <feColorMatrix
         result="fbSourceGraphicAlpha"
         in="fbSourceGraphic"
         values="0 0 0 -1 0 0 0 0 -1 0 0 0 0 -1 0 0 0 0 1 0"
         id="feColorMatrix733" />
      <feColorMatrix
         id="feColorMatrix734"
         values="0.31 0.76 -0.03 0 0 0.31 0.76 -0.03 0 0 0.31 0.76 -0.03 0 0 0 0 0 1 0 "
         in="fbSourceGraphic" />
    </filter>
    <filter
       style="color-interpolation-filters:sRGB;"
       inkscape:label="Greyscale"
       id="filter715"
       x="-0.0032777889"
       y="-0.0055243415"
       width="1.0065566"
       height="1.011048">
      <feColorMatrix
         values="0.31 0.76 -0.03 0 0 0.31 0.76 -0.03 0 0 0.31 0.76 -0.03 0 0 0 0 0 1 0 "
         id="feColorMatrix715"
         result="fbSourceGraphic" />
      <feColorMatrix
         result="fbSourceGraphicAlpha"
         in="fbSourceGraphic"
         values="0 0 0 -1 0 0 0 0 -1 0 0 0 0 -1 0 0 0 0 1 0"
         id="feColorMatrix735" />
      <feColorMatrix
         id="feColorMatrix736"
         values="0.31 0.76 -0.03 0 0 0.31 0.76 -0.03 0 0 0.31 0.76 -0.03 0 0 0 0 0 1 0 "
         in="fbSourceGraphic" />
    </filter>
    <filter
       style="color-interpolation-filters:sRGB;"
       inkscape:label="Greyscale"
       id="filter716"
       x="-0.0050029459"
       y="-0.0053303277"
       width="1.013348"
       height="1.008167">
      <feColorMatrix
         values="0.31 0.76 -0.03 0 0 0.31 0.76 -0.03 0 0 0.31 0.76 -0.03 0 0 0 0 0 1 0 "
         id="feColorMatrix716"
         result="fbSourceGraphic" />
      <feColorMatrix
         result="fbSourceGraphicAlpha"
         in="fbSourceGraphic"
         values="0 0 0 -1 0 0 0 0 -1 0 0 0 0 -1 0 0 0 0 1 0"
         id="feColorMatrix737" />
      <feColorMatrix
         id="feColorMatrix738"
         values="0.31 0.76 -0.03 0 0 0.31 0.76 -0.03 0 0 0.31 0.76 -0.03 0 0 0 0 0 1 0 "
         in="fbSourceGraphic" />
    </filter>
    <filter
       style="color-interpolation-filters:sRGB;"
       inkscape:label="Greyscale"
       id="filter717"
       x="0"
       y="0"
       width="1"
       height="1">
      <feColorMatrix
         values="0.31 0.76 -0.03 0 0 0.31 0.76 -0.03 0 0 0.31 0.76 -0.03 0 0 0 0 0 1 0 "
         id="feColorMatrix717"
         result="fbSourceGraphic" />
      <feColorMatrix
         result="fbSourceGraphicAlpha"
         in="fbSourceGraphic"
         values="0 0 0 -1 0 0 0 0 -1 0 0 0 0 -1 0 0 0 0 1 0"
         id="feColorMatrix739" />
      <feColorMatrix
         id="feColorMatrix740"
         values="0.31 0.76 -0.03 0 0 0.31 0.76 -0.03 0 0 0.31 0.76 -0.03 0 0 0 0 0 1 0 "
         in="fbSourceGraphic" />
    </filter>
    <filter
       style="color-interpolation-filters:sRGB;"
       inkscape:label="Greyscale"
       id="filter718"
       x="-0.0034827103"
       y="-0.002871636"
       width="1.0063803"
       height="1.0057002">
      <feColorMatrix
         values="0.31 0.76 -0.03 0 0 0.31 0.76 -0.03 0 0 0.31 0.76 -0.03 0 0 0 0 0 1 0 "
         id="feColorMatrix718"
         result="fbSourceGraphic" />
      <feColorMatrix
         result="fbSourceGraphicAlpha"
         in="fbSourceGraphic"
         values="0 0 0 -1 0 0 0 0 -1 0 0 0 0 -1 0 0 0 0 1 0"
         id="feColorMatrix741" />
      <feColorMatrix
         id="feColorMatrix742"
         values="0.31 0.76 -0.03 0 0 0.31 0.76 -0.03 0 0 0.31 0.76 -0.03 0 0 0 0 0 1 0 "
         in="fbSourceGraphic" />
    </filter>
    <filter
       style="color-interpolation-filters:sRGB;"
       inkscape:label="Greyscale"
       id="filter719"
       x="-0.0060554461"
       y="-0.00013913568"
       width="1.0074331"
       height="1.0063322">
      <feColorMatrix
         values="0.31 0.76 -0.03 0 0 0.31 0.76 -0.03 0 0 0.31 0.76 -0.03 0 0 0 0 0 1 0 "
         id="feColorMatrix719"
         result="fbSourceGraphic" />
      <feColorMatrix
         result="fbSourceGraphicAlpha"
         in="fbSourceGraphic"
         values="0 0 0 -1 0 0 0 0 -1 0 0 0 0 -1 0 0 0 0 1 0"
         id="feColorMatrix743" />
      <feColorMatrix
         id="feColorMatrix744"
         values="0.31 0.76 -0.03 0 0 0.31 0.76 -0.03 0 0 0.31 0.76 -0.03 0 0 0 0 0 1 0 "
         in="fbSourceGraphic" />
    </filter>
    <filter
       style="color-interpolation-filters:sRGB;"
       inkscape:label="Greyscale"
       id="filter720"
       x="0"
       y="0"
       width="1"
       height="1">
      <feColorMatrix
         values="0.31 0.76 -0.03 0 0 0.31 0.76 -0.03 0 0 0.31 0.76 -0.03 0 0 0 0 0 1 0 "
         id="feColorMatrix720"
         result="fbSourceGraphic" />
      <feColorMatrix
         result="fbSourceGraphicAlpha"
         in="fbSourceGraphic"
         values="0 0 0 -1 0 0 0 0 -1 0 0 0 0 -1 0 0 0 0 1 0"
         id="feColorMatrix745" />
      <feColorMatrix
         id="feColorMatrix746"
         values="0.31 0.76 -0.03 0 0 0.31 0.76 -0.03 0 0 0.31 0.76 -0.03 0 0 0 0 0 1 0 "
         in="fbSourceGraphic" />
    </filter>
    <filter
       style="color-interpolation-filters:sRGB;"
       inkscape:label="Greyscale"
       id="filter721"
       x="0"
       y="0"
       width="1"
       height="1">
      <feColorMatrix
         values="0.31 0.76 -0.03 0 0 0.31 0.76 -0.03 0 0 0.31 0.76 -0.03 0 0 0 0 0 1 0 "
         id="feColorMatrix721"
         result="fbSourceGraphic" />
      <feColorMatrix
         result="fbSourceGraphicAlpha"
         in="fbSourceGraphic"
         values="0 0 0 -1 0 0 0 0 -1 0 0 0 0 -1 0 0 0 0 1 0"
         id="feColorMatrix747" />
      <feColorMatrix
         id="feColorMatrix748"
         values="0.31 0.76 -0.03 0 0 0.31 0.76 -0.03 0 0 0.31 0.76 -0.03 0 0 0 0 0 1 0 "
         in="fbSourceGraphic" />
    </filter>
    <filter
       style="color-interpolation-filters:sRGB;"
       inkscape:label="Greyscale"
       id="filter722"
       x="0"
       y="0"
       width="1"
       height="1">
      <feColorMatrix
         values="0.31 0.76 -0.03 0 0 0.31 0.76 -0.03 0 0 0.31 0.76 -0.03 0 0 0 0 0 1 0 "
         id="feColorMatrix722"
         result="fbSourceGraphic" />
      <feColorMatrix
         result="fbSourceGraphicAlpha"
         in="fbSourceGraphic"
         values="0 0 0 -1 0 0 0 0 -1 0 0 0 0 -1 0 0 0 0 1 0"
         id="feColorMatrix749" />
      <feColorMatrix
         id="feColorMatrix750"
         values="0.31 0.76 -0.03 0 0 0.31 0.76 -0.03 0 0 0.31 0.76 -0.03 0 0 0 0 0 1 0 "
         in="fbSourceGraphic" />
    </filter>
    <filter
       style="color-interpolation-filters:sRGB;"
       inkscape:label="Greyscale"
       id="filter723"
       x="0"
       y="0"
       width="1"
       height="1">
      <feColorMatrix
         values="0.31 0.76 -0.03 0 0 0.31 0.76 -0.03 0 0 0.31 0.76 -0.03 0 0 0 0 0 1 0 "
         id="feColorMatrix723"
         result="fbSourceGraphic" />
      <feColorMatrix
         result="fbSourceGraphicAlpha"
         in="fbSourceGraphic"
         values="0 0 0 -1 0 0 0 0 -1 0 0 0 0 -1 0 0 0 0 1 0"
         id="feColorMatrix751" />
      <feColorMatrix
         id="feColorMatrix752"
         values="0.31 0.76 -0.03 0 0 0.31 0.76 -0.03 0 0 0.31 0.76 -0.03 0 0 0 0 0 1 0 "
         in="fbSourceGraphic" />
    </filter>
    <linearGradient
       inkscape:collect="always"
       xlink:href="#swatch3"
       id="linearGradient3"
       x1="10.738803"
       y1="109.40494"
       x2="110.68"
       y2="109.40494"
       gradientUnits="userSpaceOnUse" />
    <linearGradient
       inkscape:collect="always"
       xlink:href="#swatch5"
       id="linearGradient18"
       x1="23.275452"
       y1="172.14973"
       x2="38.061417"
       y2="172.14973"
       gradientUnits="userSpaceOnUse" />
  </defs>
  <sodipodi:namedview
     id="namedview94"
     pagecolor="#505050"
     bordercolor="#ffffff"
     borderopacity="1"
     inkscape:showpageshadow="0"
     inkscape:pageopacity="0"
     inkscape:pagecheckerboard="1"
     inkscape:deskcolor="#505050"
     inkscape:zoom="1.025"
     inkscape:cx="99.512195"
     inkscape:cy="121.95122"
     inkscape:window-width="1920"
     inkscape:window-height="969"
     inkscape:window-x="1920"
     inkscape:window-y="25"
     inkscape:window-maximized="0"
     inkscape:current-layer="g72" />
  <path
     fill="#687648"
     d="m 125.04,200 h -12.97 l 8.62,-13.83 a 1.27,1.26 -74.6 0 1 1.03,-0.59 c 1.89,-0.05 4.4,0.38 6.1,-0.09 q 1.19,-0.32 4.46,-1.79 a 1.56,1.54 64 0 1 2,0.7 l 2.18,4.16 a 0.77,0.77 0 0 1 -0.16,0.92 z"
     id="path5"
     style="display:inline;fill:#323232;fill-opacity:1;filter:url(#filter723)" />
  <path
     fill="#1f2c2c"
     d="m 153.07,200 h -7.83 q -2.38,-4.38 -6.09,-7.79 a 0.74,0.74 0 0 0 -0.88,-0.08 q -4.74,2.99 -7.59,7.87 h -5.64 l 11.26,-10.52 a 0.77,0.77 0 0 0 0.16,-0.92 l -2.18,-4.16 a 1.56,1.54 64 0 0 -2,-0.7 q -3.27,1.47 -4.46,1.79 c -1.7,0.47 -4.21,0.04 -6.1,0.09 a 1.27,1.26 -74.6 0 0 -1.03,0.59 L 112.07,200 h -4.15 q 0.2,-1.92 1.31,-3.82 a 0.96,0.94 42 0 0 -0.07,-1.07 l -3.32,-4.3 a 1.39,1.36 -18.5 0 0 -1.09,-0.53 h -8.97 a 2.06,2.03 18.4 0 0 -1.63,0.8 l -3.13,4.12 a 0.69,0.67 58.3 0 0 -0.12,0.54 l 0.94,4.26 h -4.09 l -8.02,-13.34 a 1.71,1.71 0 0 0 -1.46,-0.82 h -4.54 a 2.99,2.88 -34.8 0 1 -0.93,-0.15 l -6.6,-2.17 a 0.68,0.67 20.3 0 0 -0.83,0.38 l -1.94,4.59 a 0.91,0.9 33.5 0 0 0.21,0.99 L 74.66,200 H 47.67 q -6.35,-5.59 -9.74,-13.04 a 1,1 0 0 0 -0.74,-0.57 q -5.8,-0.97 -8.2,-2.11 -13.09,-6.19 -21.93,-17.4 a 4.81,4.79 28.6 0 1 -1.01,-3.42 q 1.9,-20.74 19.31,-31.39 a 1.78,1.73 -58.8 0 1 0.92,-0.24 q 1.87,0.07 2.89,1.85 a 1.3,1.3 0 0 0 2.38,-0.96 c -0.75,-3.07 -1.12,-6.6 -0.67,-10.26 q 0.85,-6.83 1.42,-10.39 a 3.52,3.5 -1.5 0 1 2.74,-2.87 q 9.05,-1.89 17.16,-3.18 c 0.86,-0.13 1.2,0.15 1.68,0.17 a 0.3,0.3 0 0 0 0.18,-0.54 q -0.55,-0.38 -6.33,-5.64 -1.96,-1.77 -3,-3.54 a 2.92,2.92 0 0 1 -0.4,-1.36 q -0.2,-4.8 -0.03,-11.36 c 0.09,-3.34 3.56,-5.93 6.19,-8.43 a 1.02,0.99 -22.1 0 0 0.32,-0.73 V 59.67 A 0.86,0.84 16.1 0 0 50.4,58.95 Q 48.72,57.92 48.42,57 46.28,50.42 50.27,43.83 57.14,32.49 60.3,27.3 C 66.44,17.21 75.71,14.09 87,13.81 a 2.02,1.91 56.4 0 1 0.92,0.21 q 1.7,0.86 3.58,0.9 9.3,0.2 18.52,-0.08 a 1.95,1.92 -60.1 0 0 0.83,-0.23 l 1.12,-0.62 a 1.46,1.44 -58.6 0 1 0.68,-0.17 c 10.18,0.01 20.36,2.93 25.94,11.79 q 10.18,16.17 12.57,21.27 1.97,4.2 0.25,10.31 -0.13,0.46 -1.83,1.69 a 0.9,0.88 -18.9 0 0 -0.36,0.71 v 15.09 a 1.53,1.48 -68.7 0 0 0.46,1.09 c 2.56,2.43 5.87,4.93 5.95,8.36 q 0.09,4.39 0.06,9.88 -0.01,2.45 -1.09,3.56 -1.18,1.2 -9.17,8.35 a 0.26,0.26 0 0 0 0.15,0.45 q 0.02,0 0.72,-0.22 a 3.43,3.28 -47.8 0 1 1.55,-0.11 q 13.14,2.25 17.5,3.36 c 2.02,0.51 2.28,2.85 2.67,5.45 q 0.78,5.22 1.33,10.73 a 8.31,8.15 -44.4 0 1 -0.04,1.98 l -0.76,5.28 a 1.28,1.27 -24 0 0 2.32,0.89 c 2.53,-3.75 4.92,-1.3 7.79,1.01 q 13.72,11.06 15.16,29.04 a 2.89,2.82 -38.8 0 1 -0.13,1.08 q -0.79,2.36 -2.98,4.63 -8.73,9.01 -17.86,13.85 -3.54,1.88 -10.09,3.05 a 0.7,0.7 0 0 0 -0.57,0.59 c -0.68,4.37 -6.05,9.96 -9.12,13.02 z m -9.84,-92.09 q -5.83,5.18 -9.28,9.93 a 0.57,0.56 -60.2 0 0 0.23,0.86 l 2.12,0.89 a 0.77,0.77 0 0 0 0.97,-0.33 l 6.37,-11.02 a 0.27,0.27 0 0 0 -0.41,-0.33 z m -86.08,0.46 a 0.25,0.25 0 0 0 -0.39,0.31 l 5.96,10.56 a 0.73,0.73 0 0 0 0.92,0.32 l 2.03,-0.83 a 0.54,0.54 0 0 0 0.23,-0.81 q -3.24,-4.56 -8.75,-9.55 z"
     id="path6"
     style="display:inline;fill:#1e1e1e;fill-opacity:1;filter:url(#filter722)" />
  <g
     fill="#4f5d3a"
     id="g8"
     style="display:inline;fill:#595959;fill-opacity:1;filter:url(#filter721)">
    <path
       d="M 87.75,200 H 74.66 L 63.64,189.48 a 0.91,0.9 33.5 0 1 -0.21,-0.99 l 1.94,-4.59 a 0.68,0.67 20.3 0 1 0.83,-0.38 l 6.6,2.17 a 2.99,2.88 -34.8 0 0 0.93,0.15 h 4.54 a 1.71,1.71 0 0 1 1.46,0.82 z"
       id="path7"
       style="fill:#595959;fill-opacity:1" />
    <path
       d="M 107.92,200 H 91.84 l -0.94,-4.26 a 0.69,0.67 58.3 0 1 0.12,-0.54 l 3.13,-4.12 a 2.06,2.03 18.4 0 1 1.63,-0.8 h 8.97 a 1.39,1.36 -18.5 0 1 1.09,0.53 l 3.32,4.3 a 0.96,0.94 42 0 1 0.07,1.07 q -1.11,1.9 -1.31,3.82 z"
       id="path8"
       style="fill:#595959;fill-opacity:1" />
  </g>
  <path
     fill="#3b4745"
     d="m 145.24,200 h -14.56 q 2.85,-4.88 7.59,-7.87 a 0.74,0.74 0 0 1 0.88,0.08 q 3.71,3.41 6.09,7.79 z"
     id="path9"
     style="display:inline;fill:#000000;fill-opacity:1;filter:url(#filter720)" />
  <g
     stroke-width="2"
     fill="none"
     stroke-linecap="butt"
     id="g40"
     style="display:inline;fill:#000000;fill-opacity:1;filter:url(#filter719)">
    <path
       stroke="#798957"
       vector-effect="non-scaling-stroke"
       d="m 125.4,20.51 -0.3,13.35 a 0.38,0.35 25.7 0 0 0.11,0.28 q 0.27,0.28 0.56,0.32 0.14,0.02 0.22,-0.29 0.08,-0.27 0.29,-0.3"
       id="path10"
       style="fill:#000000;fill-opacity:1" />
    <path
       stroke="#616f45"
       vector-effect="non-scaling-stroke"
       d="m 136.32,42.78 -0.2,1.71"
       id="path11"
       style="fill:#000000;fill-opacity:1" />
    <path
       stroke="#798957"
       vector-effect="non-scaling-stroke"
       d="m 136.12,44.49 q 0.11,-0.92 -0.83,-0.99 -10.01,-0.71 -20.4,-0.76"
       id="path12"
       style="fill:#000000;fill-opacity:1" />
    <path
       stroke="#616f45"
       vector-effect="non-scaling-stroke"
       d="m 133.97,51.09 1.81,-4.53"
       id="path13"
       style="fill:#000000;fill-opacity:1" />
    <path
       stroke="#718254"
       vector-effect="non-scaling-stroke"
       d="m 136.12,44.49 q -0.03,1.58 -0.34,2.07"
       id="path14"
       style="fill:#000000;fill-opacity:1" />
    <path
       stroke="#798957"
       vector-effect="non-scaling-stroke"
       d="m 135.78,46.56 -20.9,-0.85"
       id="path15"
       style="fill:#000000;fill-opacity:1" />
    <path
       stroke="#718254"
       vector-effect="non-scaling-stroke"
       d="m 128.48,22.07 q 0.24,6.54 -1.59,11.89"
       id="path16"
       style="fill:#000000;fill-opacity:1" />
    <path
       stroke="#798957"
       vector-effect="non-scaling-stroke"
       d="m 85.64,42.79 q -12.58,0.01 -21.05,0.7 -0.57,0.04 -0.76,0.65"
       id="path17"
       style="fill:#000000;fill-opacity:1" />
    <path
       stroke="#5c6a41"
       vector-effect="non-scaling-stroke"
       d="M 63.83,44.14 Q 63.6,43.64 63.64,42.78"
       id="path18"
       style="fill:#000000;fill-opacity:1" />
    <path
       stroke="#5c6a41"
       vector-effect="non-scaling-stroke"
       d="M 73.38,34.12 Q 72.91,33.81 72.7,32.79"
       id="path19"
       style="fill:#000000;fill-opacity:1" />
    <path
       stroke="#727f52"
       vector-effect="non-scaling-stroke"
       d="m 72.7,32.79 q 0.97,0.64 1.69,-0.12 a 0.98,0.94 70.4 0 0 0.26,-0.58 q 0.42,-5.48 -0.71,-11.2"
       id="path20"
       style="fill:#000000;fill-opacity:1" />
    <path
       stroke="#798957"
       vector-effect="non-scaling-stroke"
       d="M 85.63,45.29 64.37,46.17"
       id="path21"
       style="fill:#000000;fill-opacity:1" />
    <path
       stroke="#65734b"
       vector-effect="non-scaling-stroke"
       d="M 72.7,32.79 Q 71.6,27.1 72.15,21.72"
       id="path22"
       style="fill:#000000;fill-opacity:1" />
    <path
       stroke="#6c7c50"
       vector-effect="non-scaling-stroke"
       d="m 63.83,44.14 q -0.2,1.54 0.54,2.03"
       id="path23"
       style="fill:#000000;fill-opacity:1" />
    <path
       stroke="#5c6a41"
       vector-effect="non-scaling-stroke"
       d="m 64.37,46.17 q 0.01,2.37 0.93,5.02"
       id="path24"
       style="fill:#000000;fill-opacity:1" />
    <path
       stroke="#e49d33"
       vector-effect="non-scaling-stroke"
       d="m 83.46,59.2 -15.28,1.17 a 1.31,1.29 -0.5 0 0 -1.2,1.21 q -0.38,5.42 -0.21,10.4 0.06,1.86 1.98,4.02 8.02,9.02 13.75,14.04"
       id="path25"
       style="fill:#000000;fill-opacity:1" />
    <path
       stroke="#eaa538"
       vector-effect="non-scaling-stroke"
       d="m 82.5,90.04 q 1.5,1.18 1.51,2.89"
       id="path26"
       style="fill:#000000;fill-opacity:1" />
    <path
       stroke="#f6b13b"
       vector-effect="non-scaling-stroke"
       d="M 88.4,62.65 Q 83.31,67 80.19,72.86 A 1.86,1.84 -36 0 0 80,74.02 l 2.5,16.02"
       id="path27"
       style="fill:#000000;fill-opacity:1" />
    <path
       stroke="#eaa538"
       vector-effect="non-scaling-stroke"
       d="m 115.52,92.88 16.85,-17.94 a 3.51,3.5 66.7 0 0 0.95,-2.4 V 61.69 a 1.02,1.01 2.1 0 0 -0.94,-1.01 l -13.91,-1.04 a 2.14,2.11 28.2 0 0 -1.45,0.43 l -2.83,2.19 a 2.32,2.31 26.3 0 1 -1.4,0.47 L 88.4,62.65"
       id="path28"
       style="fill:#000000;fill-opacity:1" />
    <path
       stroke="#e49d33"
       vector-effect="non-scaling-stroke"
       d="M 88.4,62.65 85.23,60.4"
       id="path29"
       style="fill:#000000;fill-opacity:1" />
    <path
       stroke="#65734b"
       vector-effect="non-scaling-stroke"
       d="M 88.05,105.84 58.01,88.09"
       id="path30"
       style="fill:#000000;fill-opacity:1" />
    <path
       stroke="#6a784e"
       vector-effect="non-scaling-stroke"
       d="m 141.99,88.39 q -2.15,0.97 -4.04,2.06 -12.24,7.09 -24.33,14.42 -1.42,0.87 -2.11,2.13"
       id="path31"
       style="fill:#000000;fill-opacity:1" />
    <path
       stroke="#727f52"
       vector-effect="non-scaling-stroke"
       d="M 110.57,107.43 90.23,107.16"
       id="path32"
       style="fill:#000000;fill-opacity:1" />
    <path
       stroke="#616f45"
       vector-effect="non-scaling-stroke"
       d="m 158.53,131.26 -17.28,-3.44 a 1.45,1.44 -73 0 1 -1.05,-1.98 l 1.04,-2.46 a 2.5,2.49 14.1 0 1 2.55,-1.52 l 13.15,1.3"
       id="path33"
       style="fill:#000000;fill-opacity:1" />
    <path
       stroke="#5c6a41"
       vector-effect="non-scaling-stroke"
       d="m 60.6,126.62 -19.27,4.34"
       id="path34"
       style="fill:#000000;fill-opacity:1" />
    <path
       stroke="#616f45"
       vector-effect="non-scaling-stroke"
       d="m 155.98,144.01 q -1.95,2.35 -2.58,4.17 -2.48,7.1 -5.63,13.55"
       id="path35"
       style="fill:#000000;fill-opacity:1" />
    <path
       stroke="#616f45"
       vector-effect="non-scaling-stroke"
       d="m 120.5,174.1 -3.73,3.47"
       id="path36"
       style="fill:#000000;fill-opacity:1" />
    <path
       stroke="#5c6a41"
       vector-effect="non-scaling-stroke"
       d="m 83.3,177.31 q -0.74,-0.56 -2.2,-2.16 -1.1,-1.22 -2.26,-1.14"
       id="path37"
       style="fill:#000000;fill-opacity:1" />
    <path
       stroke="#5c6a41"
       vector-effect="non-scaling-stroke"
       d="M 51.38,161.74 44.45,141.66"
       id="path38"
       style="fill:#000000;fill-opacity:1" />
    <path
       stroke="#5c6a41"
       vector-effect="non-scaling-stroke"
       d="m 16.81,170.68 10.57,-17.67 a 3.39,3.38 51.2 0 0 0.3,-2.8 q -1.79,-5.35 -5.7,-9.77"
       id="path39"
       style="fill:#000000;fill-opacity:1" />
    <path
       stroke="#5c6a41"
       vector-effect="non-scaling-stroke"
       d="m 110.68,176.89 -2.41,4.11 a 1.98,1.97 15 0 1 -1.71,0.98 H 93.39 a 1.98,1.97 -15.1 0 1 -1.7,-0.97 l -2.41,-4.13"
       id="path40"
       style="fill:#000000;fill-opacity:1" />
  </g>
  <g
     fill="#687648"
     id="g52"
     style="display:inline;fill:#515151;fill-opacity:1;filter:url(#filter718);stroke:#5f5f5f;stroke-opacity:1">
    <path
       d="m 125.4,20.51 -0.3,13.35 a 0.38,0.35 25.7 0 0 0.11,0.28 q 0.27,0.28 0.56,0.32 0.14,0.02 0.22,-0.29 0.08,-0.27 0.29,-0.3 -0.13,0.88 0.78,1.59 4.59,3.56 9.26,7.32 l -0.2,1.71 q 0.11,-0.92 -0.83,-0.99 -10.01,-0.71 -20.4,-0.76 l 0.01,-24.16 a 0.25,0.25 0 0 1 0.27,-0.25 q 5.83,0.49 10.23,2.18 z"
       id="path41"
       style="fill:#515151;fill-opacity:1;stroke:#5f5f5f;stroke-opacity:1" />
    <path
       d="m 85.64,42.79 q -12.58,0.01 -21.05,0.7 -0.57,0.04 -0.76,0.65 -0.23,-0.5 -0.19,-1.36 4.9,-3.71 9.63,-7.5 0.73,-0.59 0.11,-1.16 -0.47,-0.31 -0.68,-1.33 0.97,0.64 1.69,-0.12 a 0.98,0.94 70.4 0 0 0.26,-0.58 q 0.42,-5.48 -0.71,-11.2 5.51,-2.15 11.43,-2.42 a 0.28,0.28 0 0 1 0.29,0.28 z"
       id="path42"
       style="fill:#515151;fill-opacity:1;stroke:#5f5f5f;stroke-opacity:1" />
    <path
       d="M 85.63,45.29 Q 86,47.27 85.37,49.7 a 0.7,0.69 -84.2 0 1 -0.63,0.52 L 65.3,51.19 q -0.92,-2.65 -0.93,-5.02 z"
       id="path43"
       style="fill:#515151;fill-opacity:1;stroke:#5f5f5f;stroke-opacity:1" />
    <path
       d="m 114.88,45.71 20.9,0.85 -1.81,4.53 -18.41,-1.12 A 0.59,0.59 0 0 1 115,49.4 Z"
       id="path44"
       style="fill:#515151;fill-opacity:1;stroke:#5f5f5f;stroke-opacity:1" />
    <path
       d="m 55.2,100.27 a 0.41,0.41 0 0 1 -0.57,0.04 l -5.29,-4.59 a 2.24,2.21 21 0 1 -0.77,-1.7 l 0.1,-9.48 a 1.41,1.39 -24.5 0 1 0.35,-0.91 l 3.65,-4.21 a 1.17,1.17 0 0 1 1.65,-0.12 l 1.78,1.54 a 1.08,1.08 0 0 1 0.11,1.52 l -3.12,3.6 a 1.15,1.14 -25 0 0 -0.26,0.72 l -0.1,8.66 a 2.42,2.39 -63.2 0 0 0.47,1.45 l 2.19,2.95 a 0.27,0.27 0 0 1 -0.01,0.32 z"
       id="path45"
       style="fill:#515151;fill-opacity:1;stroke:#5f5f5f;stroke-opacity:1" />
    <path
       d="m 90.23,107.16 20.34,0.27 -1.78,22.07 a 0.53,0.52 2.3 0 1 -0.53,0.48 H 91.7 a 0.65,0.65 0 0 1 -0.65,-0.62 z"
       id="path46"
       style="fill:#515151;fill-opacity:1;stroke:#5f5f5f;stroke-opacity:1" />
    <path
       d="m 156.94,123.16 -13.15,-1.3 a 2.5,2.49 14.1 0 0 -2.55,1.52 l -1.04,2.46 a 1.45,1.44 -73 0 0 1.05,1.98 l 17.28,3.44 -1.77,5.78 a 0.74,0.73 13.6 0 1 -0.84,0.51 l -3.11,-0.56 a 0.79,0.78 -89 0 1 -0.64,-0.67 l -0.35,-2.53 a 1.06,1.05 1.5 0 0 -0.86,-0.9 L 139,130.74 a 1.3,1.3 0 0 1 -0.96,-1.78 l 2.84,-6.76 a 2.16,2.16 0 0 1 2.33,-1.29 z"
       id="path47"
       style="fill:#515151;fill-opacity:1;stroke:#5f5f5f;stroke-opacity:1" />
    <path
       d="m 60.6,126.62 1.15,2.56 a 1.01,1 73.3 0 1 -0.75,1.4 q -5.01,0.85 -11.7,2.42 -2.17,0.51 -1.44,3.11 a 0.75,0.75 0 0 1 -0.62,0.94 l -3.14,0.43 a 0.82,0.81 -12.2 0 1 -0.89,-0.56 l -1.88,-5.96 z"
       id="path48"
       style="fill:#515151;fill-opacity:1;stroke:#5f5f5f;stroke-opacity:1" />
    <path
       d="m 155.98,144.01 q -1.95,2.35 -2.58,4.17 -2.48,7.1 -5.63,13.55 c -9.31,3.75 -18.78,7.11 -27.27,12.37 l -3.73,3.47 -4.66,-4 a 2.35,2.32 66.1 0 0 -1.43,-0.56 q -6.57,-0.23 -19.67,-0.08 c -3.53,0.04 -5.34,2.26 -7.71,4.38 q -0.74,-0.56 -2.2,-2.16 -1.1,-1.22 -2.26,-1.14 -3.44,-2.37 -6.85,-3.99 -9.88,-4.7 -20.61,-8.28 l -6.93,-20.08 q -1.56,-1.81 3.58,-1.85 a 0.77,0.74 75.1 0 1 0.68,0.41 l 1.9,3.64 a 1.2,1.2 0 0 0 1.28,0.62 l 15.05,-2.83 a 0.97,0.97 0 0 0 0.77,-1.13 l -1.67,-8.91 a 0.26,0.26 0 0 1 0.46,-0.2 q 8.97,11.53 21.4,17.82 a 2.94,2.92 11.1 0 1 1.6,2.36 l 1.01,11.04 a 0.35,0.35 0 0 1 -0.62,0.25 l -2.55,-3.31 a 0.63,0.62 -48.6 0 0 -1.03,0.07 l -0.94,1.63 a 1.61,1.6 36.3 0 0 0.31,1.98 c 2.28,2.08 4.11,4.52 7.82,4.67 q 7.56,0.31 15.07,-0.2 a 2.07,2.04 -66.9 0 0 1.17,-0.48 l 4.68,-3.97 a 0.79,0.74 -9.4 0 0 0.2,-0.26 q 0.54,-1.24 -1.1,-3.17 a 0.76,0.76 0 0 0 -1.27,0.18 q -0.99,2.12 -2.4,3.42 a 0.34,0.34 0 0 1 -0.56,-0.29 l 1.41,-11.54 a 3.12,3.12 0 0 1 1.62,-2.38 q 8.97,-4.88 16.14,-12 c 1.8,-1.79 3.67,-4.51 4.97,-5.98 a 0.48,0.48 0 0 1 0.82,0.45 l -2.38,7.83 a 1.73,1.73 0 0 0 1.35,2.21 l 14.82,2.67 a 1.57,1.56 -76.3 0 0 1.78,-1.09 l 0.89,-2.94 a 0.98,0.98 0 0 1 1.06,-0.69 l 3.34,0.4 a 0.78,0.77 2.2 0 1 0.68,0.73 z"
       id="path49"
       style="fill:#515151;fill-opacity:1;stroke:#5f5f5f;stroke-opacity:1" />
    <path
       d="m 174.69,137.65 q 12.25,8.27 14.51,23.14 0.25,1.7 -0.12,3.36 a 2.8,2.76 -18.8 0 1 -0.59,1.18 q -2.43,2.88 -6.97,6.81 c -2.34,2.02 -3.32,-0.22 -4.63,-1.73 q -2.23,-2.55 -7.44,-8.85 a 2.04,1.95 -72.8 0 1 -0.4,-0.8 l -2.29,-9.55 a 2.07,2.06 53.4 0 1 0.22,-1.51 l 6.84,-11.85 a 0.62,0.61 31.5 0 1 0.87,-0.2 z"
       id="path50"
       style="fill:#515151;fill-opacity:1;stroke:#5f5f5f;stroke-opacity:1" />
    <path
       d="m 16.81,170.68 10.57,-17.67 a 3.39,3.38 51.2 0 0 0.3,-2.8 q -1.79,-5.35 -5.7,-9.77 l 3.41,-2.72 a 0.66,0.66 0 0 1 0.99,0.2 q 2.57,4.82 5.74,10.48 1.18,2.09 0.84,3.64 -0.92,4.16 -2.1,8.11 a 5.67,5.6 74.4 0 1 -1.12,2.02 l -8.94,10.37 a 1.27,1.27 0 0 1 -1.6,0.27 q -1.43,-0.84 -2.39,-2.13 z"
       id="path51"
       style="fill:#515151;fill-opacity:1;stroke:#5f5f5f;stroke-opacity:1" />
    <path
       d="m 89.28,176.88 2.41,4.13 a 1.98,1.97 -15.1 0 0 1.7,0.97 h 13.17 a 1.98,1.97 15 0 0 1.71,-0.98 l 2.41,-4.11 7.71,6.79 a 0.54,0.53 -50.6 0 1 0.07,0.73 l -5.86,7.7 a 0.42,0.42 0 0 1 -0.67,0 l -3.47,-4.5 a 2.95,2.93 70.6 0 0 -2.36,-1.14 q -4.76,0.05 -11.62,0 -2.53,-0.02 -3.72,2.03 -1.47,2.54 -2.4,3.71 a 0.54,0.53 44.7 0 1 -0.85,0 l -5.88,-7.62 a 0.68,0.66 -39.8 0 1 0.09,-0.91 z"
       id="path52"
       style="fill:#515151;fill-opacity:1;stroke:#5f5f5f;stroke-opacity:1" />
  </g>
  <path
     fill="#fcb940"
     d="   M 115.52 92.88   L 110.23 87.36   A 2.47 2.44 68.0 0 0 108.45 86.59   L 91.63 86.59   A 2.03 2.02 22.7 0 0 90.21 87.17   Q 87.84 89.51 85.00 92.70   Q 84.71 93.02 84.01 92.93   Q 84.00 91.22 82.50 90.04   L 80.00 74.02   A 1.86 1.84 -36.0 0 1 80.19 72.86   Q 83.31 67.00 88.40 62.65   L 112.79 62.73   A 2.32 2.31 26.3 0 0 114.19 62.26   L 117.02 60.07   A 2.14 2.11 28.2 0 1 118.47 59.64   L 132.38 60.68   A 1.02 1.01 2.1 0 1 133.32 61.69   L 133.32 72.54   A 3.51 3.50 66.7 0 1 132.37 74.94   L 115.52 92.88   Z"
     id="path53"
     style="filter:url(#filter717);fill:#b6b6b6;fill-opacity:1;opacity:1" />
  <g
     fill="#4f5d3a"
     id="g66"
     style="display:inline;fill:#353535;fill-opacity:1;stroke:url(#linearGradient3);filter:url(#filter716)">
    <path
       d="m 72.15,21.72 q -0.55,5.38 0.55,11.07 0.21,1.02 0.68,1.33 -7.88,2.51 -14.85,6.71 a 0.4,0.4 0 0 1 -0.55,-0.55 q 3.48,-6.02 6.92,-11.38 2.99,-4.66 7.25,-7.18 z"
       id="path54"
       style="fill:#353535;fill-opacity:1;stroke:url(#linearGradient3)" />
    <path
       d="m 63.64,42.78 q -0.04,0.86 0.19,1.36 -0.2,1.54 0.54,2.03 0.01,2.37 0.93,5.02 L 53.78,54.2 a 1.33,1.32 -16.1 0 1 -1.6,-0.88 q -0.92,-2.92 0.68,-5.96 a 1.92,1.9 88.2 0 1 0.67,-0.72 c 3.87,-2.39 6.37,-2.75 10.11,-3.86 z"
       id="path55"
       style="fill:#353535;fill-opacity:1;stroke:url(#linearGradient3)" />
    <path
       d="m 57.18,77.98 -0.92,-0.79 a 2.61,2.61 0 0 1 -0.9,-1.97 V 60.46 a 1.71,1.71 0 0 1 0.99,-1.55 l 0.42,-0.19 a 0.87,0.87 0 0 1 1.24,0.79 V 77.6 a 0.5,0.5 0 0 1 -0.83,0.38 z"
       id="path56"
       style="fill:#353535;fill-opacity:1;stroke:url(#linearGradient3)" />
    <path
       d="m 88.05,105.84 -7.77,10.99 a 0.57,0.57 0 0 1 -0.92,0.01 q -7.02,-9.3 -16.53,-16.29 a 0.7,0.7 0 0 0 -1.11,0.69 l 0.91,4.84 a 0.43,0.43 0 0 1 -0.7,0.4 l -2.9,-2.5 a 3.41,3.38 -69.5 0 1 -1.18,-2.62 l 0.16,-13.27 z"
       id="path57"
       style="fill:#353535;fill-opacity:1;stroke:url(#linearGradient3)" />
    <path
       d="m 81.03,122.66 a 0.32,0.32 0 0 1 -0.49,0.25 C 77.44,120.9 66.08,113.33 65.7,109.7 a 0.53,0.53 0 0 1 0.76,-0.53 c 5.8,2.85 10.95,8.05 14.25,12.63 q 0.34,0.47 0.32,0.86 z"
       id="path58"
       style="fill:#353535;fill-opacity:1;stroke:url(#linearGradient3)" />
    <path
       d="m 60.6,126.62 -19.27,4.34 -5.62,-6.05 a 1.82,1.79 -63.5 0 1 -0.47,-1.45 l 1.1,-8.99 a 1.47,1.47 0 0 1 1.27,-1.29 l 14.5,-2 a 1.33,1.32 -17.6 0 1 1.36,0.7 l 3.25,6.21 a 0.56,0.55 79.6 0 1 -0.55,0.81 l -1.07,-0.13 a 1.94,1.93 -10.1 0 1 -1.5,-1.04 l -2.03,-3.87 a 0.85,0.85 0 0 0 -0.88,-0.45 l -10.55,1.45 a 1.41,1.41 0 0 0 -1.23,1.4 v 5.38 a 1.63,1.62 -1.7 0 0 1.72,1.62 q 4.92,-0.3 12.61,-2.2 1.61,-0.4 4.55,0.07 a 0.99,0.98 -6.5 0 1 0.75,0.59 z"
       id="path59"
       style="fill:#353535;fill-opacity:1;stroke:url(#linearGradient3)" />
    <path
       d="m 85.87,125.73 -4.15,-5.76 a 0.6,0.6 0 0 1 0,-0.7 l 4.12,-5.78 a 0.6,0.6 0 0 1 1.09,0.35 l 0.02,11.53 a 0.6,0.6 0 0 1 -1.08,0.36 z"
       id="path60"
       style="fill:#353535;fill-opacity:1;stroke:url(#linearGradient3)" />
    <path
       d="m 36.56,131.53 a 0.15,0.15 0 0 1 0.11,-0.18 l 0.07,-0.02 a 6.49,2.2 77.7 0 1 3.53,5.88 l 0.06,0.29 a 6.49,2.2 77.7 0 1 -0.76,6.81 l -0.07,0.01 a 0.15,0.15 0 0 1 -0.18,-0.11 z"
       id="path61"
       style="fill:#353535;fill-opacity:1;stroke:url(#linearGradient3)" />
    <path
       d="m 21.98,140.44 q 3.91,4.42 5.7,9.77 a 3.39,3.38 51.2 0 1 -0.3,2.8 l -10.57,17.67 q -3.78,-2.61 -5.79,-6.13 a 2.24,2.19 32 0 1 -0.28,-1.15 q 0.52,-13.94 11.24,-22.96 z"
       id="path62"
       style="fill:#353535;fill-opacity:1;stroke:url(#linearGradient3)" />
    <path
       d="m 51.38,161.74 -5.73,8.41 a 0.16,0.16 0 0 1 -0.29,-0.06 l -3.39,-18.06 a 6.26,6.23 48.5 0 1 0.18,-3.07 l 2.3,-7.3 z"
       id="path63"
       style="fill:#353535;fill-opacity:1;stroke:url(#linearGradient3)" />
    <path
       d="m 78.84,174.01 q 1.16,-0.08 2.26,1.14 1.46,1.6 2.2,2.16 c -2.75,2.29 -6.48,5.37 -9.79,4.45 -1.2,-0.33 -1.91,-1.82 -2.95,-2.53 a 1.88,1.83 -27.4 0 0 -1.23,-0.37 l -4.58,0.28 a 1.87,1.84 24.1 0 0 -1.05,0.39 q -0.87,0.69 -1.71,2.59 a 1.18,1.18 0 0 1 -0.84,0.67 c -2.66,0.56 -4.61,0.35 -6.91,-1.68 q -5.09,-4.5 -7.5,-6.77 a 0.74,0.73 -51.9 0 1 -0.11,-0.94 q 1.78,-2.71 4.1,-6.91 1.13,-2.05 3.21,-1.19 9.28,3.84 18.31,7.5 3.26,1.33 6.59,1.21 z"
       id="path64"
       style="fill:#353535;fill-opacity:1;stroke:url(#linearGradient3)" />
    <path
       d="m 110.68,176.89 -2.41,4.11 a 1.98,1.97 15 0 1 -1.71,0.98 H 93.39 a 1.98,1.97 -15.1 0 1 -1.7,-0.97 l -2.41,-4.13 q 10.7,-0.86 21.4,0.01 z"
       id="path65"
       style="fill:#353535;fill-opacity:1;stroke:url(#linearGradient3)" />
    <path
       d="m 60.42,187.1 -8.18,9.66 a 0.94,0.93 -50.5 0 1 -1.29,0.13 q -4.47,-3.66 -6.71,-8.35 a 2.23,2.22 51.1 0 1 0.24,-2.31 l 3.61,-4.68 a 0.55,0.54 -51.9 0 1 0.76,-0.1 l 5.34,4.11 a 1.96,1.94 -23.2 0 0 0.96,0.38 l 4.98,0.45 a 0.43,0.43 0 0 1 0.29,0.71 z"
       id="path66"
       style="fill:#353535;fill-opacity:1;stroke:url(#linearGradient3)" />
  </g>
  <g
     fill="#3b4745"
     id="g72"
     style="display:inline;fill:#5e5e5e;fill-opacity:1;stroke:#373737;stroke-opacity:1;filter:url(#filter715)">
    <rect
       x="-7.3499999"
       y="-0.81"
       transform="rotate(0.1,-52278.037,57553.424)"
       width="14.7"
       height="1.62"
       rx="0.77999997"
       id="rect66"
       style="fill:#5e5e5e;fill-opacity:1;stroke:#373737;stroke-opacity:1" />
    <ellipse
       cx="0"
       cy="0"
       transform="rotate(-88.1,103.91406,-9.0261932)"
       rx="1.4299999"
       ry="1.28"
       id="ellipse66"
       style="fill:#5e5e5e;fill-opacity:1;stroke:#373737;stroke-opacity:1" />
    <rect
       x="-1.03"
       y="-1.54"
       transform="rotate(36.1,-101.73913,186.68639)"
       width="2.0599999"
       height="3.0799999"
       rx="0.81999999"
       id="rect67"
       style="fill:#5e5e5e;fill-opacity:1;stroke:#373737;stroke-opacity:1" />
    <rect
       x="-5.8000002"
       y="-1.99"
       transform="rotate(-0.2,28139.257,-28616.024)"
       width="11.6"
       height="3.98"
       rx="0.44999999"
       id="rect68"
       style="fill:#5e5e5e;fill-opacity:1;stroke:#373737;stroke-opacity:1" />
    <path
       d="m 101.63,142.66 a 0.14,0.14 0 0 1 -0.07,-0.25 l 25.66,-19.8 a 0.45,0.45 0 0 1 0.72,0.36 c 0,5.39 -2.2,9.52 -6.26,13.71 q -2.91,3.02 -8.07,4.36 -7.08,1.84 -11.98,1.62 z"
       id="path68"
       style="fill:#5e5e5e;fill-opacity:1;stroke:#373737;stroke-opacity:1" />
    <path
       d="m 58.29,139.59 q -3.32,0.68 -4.08,0.82 a 1,0.99 -19.1 0 1 -1.07,-0.51 l -1.63,-3.12 a 0.77,0.77 0 0 1 0.53,-1.11 q 2.67,-0.52 4.96,-0.99 3.32,-0.68 4.08,-0.83 a 1,0.99 -19.1 0 1 1.07,0.52 l 1.63,3.12 a 0.77,0.77 0 0 1 -0.53,1.11 q -2.67,0.52 -4.96,0.99 z"
       id="path69"
       style="fill:#5e5e5e;fill-opacity:1;stroke:#373737;stroke-opacity:1" />
    <path
       d="m 148.54,137.01 -1.21,2.89 a 0.92,0.92 0 0 1 -1.01,0.55 l -9.74,-1.75 a 0.92,0.92 0 0 1 -0.68,-1.26 l 1.21,-2.9 a 0.92,0.92 0 0 1 1.02,-0.55 l 9.73,1.76 a 0.92,0.92 0 0 1 0.68,1.26 z"
       id="path70"
       style="fill:#5e5e5e;fill-opacity:1;stroke:#373737;stroke-opacity:1" />
    <rect
       x="-6.52"
       y="-3.3299999"
       transform="rotate(0.2,-46187.602,28754.344)"
       width="13.04"
       height="6.6599998"
       rx="1.17"
       id="rect70"
       style="fill:#5e5e5e;fill-opacity:1;stroke:#373737;stroke-opacity:1" />
    <path
       d="m 36.83,163.38 a 0.53,0.53 0 0 1 0.73,0.53 l -1.2,16.05 a 1.08,1.07 5.1 0 1 -1.19,0.99 q -6.08,-0.61 -11.13,-4.71 a 0.7,0.69 33.9 0 1 -0.18,-0.88 q 4.7,-8.46 12.97,-11.98 z"
       id="path71"
       style="fill:#5e5e5e;fill-opacity:1;stroke:url(#linearGradient18);stroke-opacity:1" />
    <path
       d="m 162.85,163.42 q 8.29,3.51 13.01,11.97 a 0.71,0.69 -34 0 1 -0.18,0.88 q -5.05,4.12 -11.13,4.74 a 1.08,1.08 0 0 1 -1.2,-0.99 l -1.23,-16.07 a 0.53,0.53 0 0 1 0.73,-0.53 z"
       id="path72"
       style="fill:#5e5e5e;fill-opacity:1;stroke:#373737;stroke-opacity:1" />
  </g>
  <g
     fill="#d8912f"
     id="g74"
     style="filter:url(#filter714);fill:#4c4c4c;fill-opacity:1">
    <path
       d="   M 83.46 59.20   L 68.18 60.37   A 1.31 1.29 -0.5 0 0 66.98 61.58   Q 66.60 67.00 66.77 71.98   Q 66.83 73.84 68.75 76.00   Q 76.77 85.02 82.50 90.04   Q 84.00 91.22 84.01 92.93   Q 83.25 93.17 82.82 92.94   Q 77.88 90.32 72.42 86.61   Q 69.94 84.94 69.04 83.92   A 0.96 0.72 18.6 0 1 68.91 83.73   L 62.96 72.37   A 2.05 1.99 -59.4 0 1 62.74 71.45   L 62.74 58.05   A 1.58 1.57 -4.0 0 1 64.10 56.49   Q 69.90 55.67 76.24 55.20   Q 78.18 55.05 79.61 55.43   A 1.57 1.51 74.7 0 1 80.35 55.87   L 83.46 59.20   Z"
       id="path73"
       style="fill:#4c4c4c;fill-opacity:1" />
    <path
       d="   M 115.52 92.88   L 132.37 74.94   A 3.51 3.50 66.7 0 0 133.32 72.54   L 133.32 61.69   A 1.02 1.01 2.1 0 0 132.38 60.68   L 118.47 59.64   A 2.14 2.11 28.2 0 0 117.02 60.07   L 114.19 62.26   A 2.32 2.31 26.3 0 1 112.79 62.73   L 88.40 62.65   L 85.23 60.40   L 113.05 60.38   A 3.66 3.64 -65.0 0 0 115.40 59.52   L 120.47 55.23   A 0.50 0.49 25.7 0 1 120.82 55.11   L 135.30 56.19   A 1.92 1.91 -87.9 0 1 137.07 58.10   L 137.08 71.98   A 3.44 3.38 -31.1 0 1 136.64 73.69   C 135.68 75.56 133.72 78.57 132.67 81.08   Q 131.49 83.90 130.73 84.50   Q 127.18 87.32 118.70 92.17   Q 116.89 93.20 115.52 92.88   Z"
       id="path74"
       style="fill:#4c4c4c;fill-opacity:1" />
  </g>
  <g
     fill="#7b885b"
     id="g78"
     style="filter:url(#filter713);fill:#414141;fill-opacity:1">
    <path
       d="   M 73.94 20.89   Q 75.07 26.61 74.65 32.09   A 0.98 0.94 70.4 0 1 74.39 32.67   Q 73.67 33.43 72.70 32.79   Q 71.60 27.10 72.15 21.72   L 73.94 20.89   Z"
       id="path75"
       style="fill:#414141;fill-opacity:1" />
    <path
       d="   M 144.40 100.45   L 144.22 100.24   A 0.27 0.27 0.0 0 1 144.21 99.91   L 146.47 96.94   A 2.46 2.43 63.8 0 0 146.96 95.47   L 146.96 86.68   A 1.16 1.15 25.7 0 0 146.70 85.95   L 143.57 82.26   A 1.10 1.10 0.0 0 1 143.70 80.71   L 145.52 79.17   A 1.19 1.19 0.0 0 1 147.20 79.31   L 150.86 83.63   A 1.43 1.41 25.1 0 1 151.20 84.55   L 151.20 94.18   A 2.27 2.25 -20.4 0 1 150.40 95.90   L 144.98 100.50   A 0.42 0.41 49.5 0 1 144.40 100.45   Z"
       id="path76"
       style="fill:#414141;fill-opacity:1" />
    <path
       d="   M 88.05 105.84   L 58.01 88.09   Q 57.69 86.99 58.14 85.75   A 1.95 1.87 78.5 0 1 58.55 85.10   L 62.14 81.47   A 0.81 0.80 -30.9 0 1 63.48 81.80   C 64.39 84.81 64.72 86.06 67.27 88.11   Q 76.64 95.66 87.01 100.36   A 2.19 2.17 -7.3 0 1 87.79 100.96   Q 90.73 104.58 88.05 105.84   Z"
       id="path77"
       style="fill:#414141;fill-opacity:1" />
    <path
       d="   M 141.99 88.39   Q 139.84 89.36 137.95 90.45   Q 125.71 97.54 113.62 104.87   Q 112.20 105.74 111.51 107.00   Q 110.40 108.08 110.57 107.43   L 90.23 107.16   Q 91.75 104.66 93.12 103.76   A 2.05 1.98 27.5 0 1 94.23 103.43   L 108.81 103.43   A 2.43 2.43 0.0 0 0 110.76 102.45   L 111.87 100.95   A 1.69 1.69 0.0 0 1 112.56 100.45   C 118.97 98.04 127.71 92.53 134.68 86.69   A 3.07 3.07 0.0 0 0 135.56 85.49   L 137.25 81.48   A 0.43 0.42 -56.0 0 1 137.94 81.34   L 141.60 84.99   A 1.36 1.31 16.1 0 1 141.95 85.60   Q 142.35 87.02 141.99 88.39   Z"
       id="path78"
       style="fill:#414141;fill-opacity:1" />
  </g>
  <g
     fill="#596841"
     id="g90"
     style="display:inline;fill:#797979;fill-opacity:1;filter:url(#filter712)">
    <rect
       x="89.25"
       y="19.690001"
       width="21.68"
       height="15.2"
       rx="0.75999999"
       id="rect78"
       style="fill:#797979;fill-opacity:1" />
    <path
       d="m 126.89,33.96 q 1.83,-5.35 1.59,-11.89 3.69,2.35 7.19,7.75 3.37,5.19 6.23,10.51 a 0.28,0.28 0 0 1 -0.36,0.39 z"
       id="path79"
       style="fill:#797979;fill-opacity:1" />
    <rect
       x="-10.92"
       y="-2.01"
       transform="rotate(0.1,-22868.256,57373.061)"
       width="21.84"
       height="4.02"
       rx="1.1900001"
       id="rect79"
       style="fill:#797979;fill-opacity:1" />
    <path
       d="m 133.97,51.09 1.81,-4.53 q 0.31,-0.49 0.34,-2.07 l 0.2,-1.71 q 3.06,1.03 6.3,2.09 6.52,2.14 4.9,8.56 a 1.1,1.09 18.5 0 1 -1.49,0.74 q -5.88,-2.45 -12.06,-3.08 z"
       id="path80"
       style="fill:#797979;fill-opacity:1" />
    <path
       d="m 110.92,46.84 -0.35,1.93 a 1.44,1.44 0 0 1 -1.41,1.18 H 91 a 1.44,1.44 0 0 1 -1.42,-1.18 l -0.36,-1.93 a 1.44,1.44 0 0 1 1.41,-1.7 h 18.88 a 1.44,1.44 0 0 1 1.41,1.7 z"
       id="path81"
       style="fill:#797979;fill-opacity:1" />
    <path
       d="m 113.46,55.82 -1.21,1.39 a 1.08,1.08 0 0 1 -0.81,0.37 H 88.66 a 1.08,1.08 0 0 1 -0.7,-0.26 l -1.62,-1.39 a 1.08,1.08 0 0 1 0.71,-1.9 h 25.59 a 1.08,1.08 0 0 1 0.82,1.79 z"
       id="path82"
       style="fill:#797979;fill-opacity:1" />
    <path
       d="M 141.54,78.17 V 59.39 a 0.74,0.74 0 0 1 0.95,-0.71 l 1.33,0.4 a 1.34,1.33 -81.5 0 1 0.94,1.28 v 15.2 a 1.95,1.93 69.9 0 1 -0.68,1.48 l -1.76,1.49 a 0.47,0.47 0 0 1 -0.78,-0.36 z"
       id="path83"
       style="fill:#797979;fill-opacity:1" />
    <path
       d="m 141.99,88.39 -0.07,13.67 a 1.4,1.36 70.8 0 1 -0.48,1.03 l -3.33,2.82 a 0.34,0.34 0 0 1 -0.55,-0.32 l 0.82,-4.52 a 0.72,0.72 0 0 0 -1.15,-0.7 q -13.87,10.56 -22.87,24.59 a 0.26,0.26 0 0 1 -0.47,-0.07 q -0.37,-1.39 -0.29,-2.95 0.29,-5.48 0.38,-10.91 0.05,-3.06 -2.47,-4.03 0.69,-1.26 2.11,-2.13 12.09,-7.33 24.33,-14.42 1.89,-1.09 4.04,-2.06 z"
       id="path84"
       style="fill:#797979;fill-opacity:1" />
    <path
       d="m 119.29,122.41 q -0.02,-0.38 0.31,-0.84 c 3.2,-4.45 8.2,-9.5 13.82,-12.27 a 0.52,0.51 -9.8 0 1 0.74,0.51 c -0.36,3.53 -11.39,10.89 -14.4,12.84 a 0.31,0.31 0 0 1 -0.47,-0.24 z"
       id="path85"
       style="fill:#797979;fill-opacity:1" />
    <path
       d="m 158.53,131.26 -17.28,-3.44 a 1.45,1.44 -73 0 1 -1.05,-1.98 l 1.04,-2.46 a 2.5,2.49 14.1 0 1 2.55,-1.52 l 13.15,1.3 h 3.05 a 1.32,1.32 0 0 0 1.32,-1.32 v -5.46 a 1.42,1.41 -84.9 0 0 -1.16,-1.4 l -10.29,-1.85 a 1.09,1.08 20 0 0 -1.14,0.53 l -2.63,4.54 a 0.94,0.93 -75 0 1 -0.81,0.47 h -1.36 a 0.51,0.51 0 0 1 -0.47,-0.71 l 2.36,-5.62 a 2.43,2.42 16.4 0 1 2.66,-1.44 l 14.1,2.54 a 1.13,1.12 1.5 0 1 0.91,0.95 l 1.24,9.03 a 1.81,1.81 0 0 1 -0.44,1.44 z"
       id="path86"
       style="fill:#797979;fill-opacity:1" />
    <path
       d="m 160.44,144.75 a 0.1,0.1 0 0 1 -0.12,0.08 l -0.03,-0.01 a 6.13,2.21 -77.7 0 1 -0.86,-6.46 l 0.35,-1.58 a 6.13,2.21 -77.7 0 1 3.46,-5.52 l 0.03,0.01 a 0.1,0.1 0 0 1 0.08,0.12 z"
       id="path87"
       style="fill:#797979;fill-opacity:1" />
    <path
       d="m 147.77,161.73 q 3.15,-6.45 5.63,-13.55 0.63,-1.82 2.58,-4.17 3.06,5.45 1.91,9.84 -2.11,8.03 -3.01,15.99 a 0.52,0.52 0 0 1 -0.94,0.25 z"
       id="path88"
       style="fill:#797979;fill-opacity:1" />
    <path
       d="m 116.77,177.57 3.73,-3.47 q 4.86,-0.78 8.26,-2.08 8.98,-3.43 17.98,-6.93 a 1.34,1.33 -29.4 0 1 1.55,0.43 l 5.42,7.03 a 1.38,1.38 0 0 1 -0.15,1.86 q -3.41,3.2 -8.93,7.72 -1.81,1.48 -5.27,0.84 a 0.8,0.76 75.1 0 1 -0.49,-0.3 l -2.09,-2.71 a 0.85,0.84 73.9 0 0 -0.57,-0.32 l -5.11,-0.62 a 1.83,1.81 -65.8 0 0 -1.6,0.62 l -1.45,1.68 a 3.52,3.51 31.4 0 1 -4,0.96 q -4.09,-1.65 -7.28,-4.71 z"
       id="path89"
       style="fill:#797979;fill-opacity:1" />
    <path
       d="m 139.32,187.15 a 0.45,0.44 67.6 0 1 0.3,-0.73 l 5.14,-0.47 a 2.02,2 23.2 0 0 0.99,-0.39 l 5.51,-4.25 a 0.56,0.56 0 0 1 0.79,0.1 l 3.73,4.83 a 2.3,2.29 -51.1 0 1 0.25,2.38 q -2.3,4.85 -6.91,8.63 a 0.97,0.96 50.4 0 1 -1.34,-0.13 z"
       id="path90"
       style="fill:#797979;fill-opacity:1" />
  </g>
  <path
     fill="#efa836"
     d="m 83.46,59.2 1.77,1.2 3.17,2.25 Q 83.31,67 80.19,72.86 A 1.86,1.84 -36 0 0 80,74.02 l 2.5,16.02 Q 76.77,85.02 68.75,76 66.83,73.84 66.77,71.98 66.6,67 66.98,61.58 a 1.31,1.29 -0.5 0 1 1.2,-1.21 z"
     id="path91"
     style="display:inline;fill:#757575;fill-opacity:1;stroke:#777777;stroke-opacity:1;filter:url(#filter711)" />
  <g
     fill="#899b66"
     id="g94"
     style="filter:url(#filter710);fill:#3c3c3c;fill-opacity:1">
    <path
       d="   M 125.40 20.51   L 128.48 22.07   Q 128.72 28.61 126.89 33.96   Q 126.58 33.92 126.28 33.87   Q 126.07 33.90 125.99 34.17   Q 125.91 34.48 125.77 34.46   Q 125.48 34.42 125.21 34.14   A 0.38 0.35 25.7 0 1 125.10 33.86   L 125.40 20.51   Z"
       id="path92"
       style="fill:#3c3c3c;fill-opacity:1" />
    <path
       d="   M 85.64 42.79   Q 85.37 44.13 85.63 45.29   L 64.37 46.17   Q 63.63 45.68 63.83 44.14   Q 64.02 43.53 64.59 43.49   Q 73.06 42.80 85.64 42.79   Z"
       id="path93"
       style="fill:#3c3c3c;fill-opacity:1" />
    <path
       d="   M 136.12 44.49   Q 136.09 46.07 135.78 46.56   L 114.88 45.71   L 114.89 42.74   Q 125.28 42.79 135.29 43.50   Q 136.23 43.57 136.12 44.49   Z"
       id="path94"
       style="fill:#3c3c3c;fill-opacity:1" />
  </g>
</svg>
