<?xml version="1.0" encoding="UTF-8" standalone="no"?>
<svg
   version="1.1"
   viewBox="0.00 0.00 200.00 200.00"
   id="svg94"
   sodipodi:docname="masterchief-orange.svg"
   inkscape:version="1.4 (e7c3feb1, 2024-10-09)"
   xmlns:inkscape="http://www.inkscape.org/namespaces/inkscape"
   xmlns:sodipodi="http://sodipodi.sourceforge.net/DTD/sodipodi-0.dtd"
   xmlns="http://www.w3.org/2000/svg"
   xmlns:svg="http://www.w3.org/2000/svg">
  <defs
     id="defs94" />
  <sodipodi:namedview
     id="namedview94"
     pagecolor="#505050"
     bordercolor="#ffffff"
     borderopacity="1"
     inkscape:showpageshadow="0"
     inkscape:pageopacity="0"
     inkscape:pagecheckerboard="1"
     inkscape:deskcolor="#505050"
     inkscape:zoom="4.1"
     inkscape:cx="100"
     inkscape:cy="100"
     inkscape:window-width="1920"
     inkscape:window-height="1027"
     inkscape:window-x="1966"
     inkscape:window-y="25"
     inkscape:window-maximized="0"
     inkscape:current-layer="svg94" />
  <g
     stroke-width="2.00"
     fill="none"
     stroke-linecap="butt"
     id="g4">
    <path
       stroke="#2d3a39"
       vector-effect="non-scaling-stroke"
       d="   M 145.24 200.00   Q 142.86 195.62 139.15 192.21   A 0.74 0.74 0.0 0 0 138.27 192.13   Q 133.53 195.12 130.68 200.00"
       id="path1" />
    <path
       stroke="#44513a"
       vector-effect="non-scaling-stroke"
       d="   M 125.04 200.00   L 136.30 189.48   A 0.77 0.77 0.0 0 0 136.46 188.56   L 134.28 184.40   A 1.56 1.54 64.0 0 0 132.28 183.70   Q 129.01 185.17 127.82 185.49   C 126.12 185.96 123.61 185.53 121.72 185.58   A 1.27 1.26 -74.6 0 0 120.69 186.17   L 112.07 200.00"
       id="path2" />
    <path
       stroke="#374533"
       vector-effect="non-scaling-stroke"
       d="   M 107.92 200.00   Q 108.12 198.08 109.23 196.18   A 0.96 0.94 42.0 0 0 109.16 195.11   L 105.84 190.81   A 1.39 1.36 -18.5 0 0 104.75 190.28   L 95.78 190.28   A 2.06 2.03 18.4 0 0 94.15 191.08   L 91.02 195.20   A 0.69 0.67 58.3 0 0 90.90 195.74   L 91.84 200.00"
       id="path3" />
    <path
       stroke="#374533"
       vector-effect="non-scaling-stroke"
       d="   M 87.75 200.00   L 79.73 186.66   A 1.71 1.71 0.0 0 0 78.27 185.84   L 73.73 185.84   A 2.99 2.88 -34.8 0 1 72.80 185.69   L 66.20 183.52   A 0.68 0.67 20.3 0 0 65.37 183.90   L 63.43 188.49   A 0.91 0.90 33.5 0 0 63.64 189.48   L 74.66 200.00"
       id="path4" />
  </g>
  <path
     fill="#687648"
     d="   M 125.04 200.00   L 112.07 200.00   L 120.69 186.17   A 1.27 1.26 -74.6 0 1 121.72 185.58   C 123.61 185.53 126.12 185.96 127.82 185.49   Q 129.01 185.17 132.28 183.70   A 1.56 1.54 64.0 0 1 134.28 184.40   L 136.46 188.56   A 0.77 0.77 0.0 0 1 136.30 189.48   L 125.04 200.00   Z"
     id="path5" />
  <path
     fill="#1f2c2c"
     d="   M 153.07 200.00   L 145.24 200.00   Q 142.86 195.62 139.15 192.21   A 0.74 0.74 0.0 0 0 138.27 192.13   Q 133.53 195.12 130.68 200.00   L 125.04 200.00   L 136.30 189.48   A 0.77 0.77 0.0 0 0 136.46 188.56   L 134.28 184.40   A 1.56 1.54 64.0 0 0 132.28 183.70   Q 129.01 185.17 127.82 185.49   C 126.12 185.96 123.61 185.53 121.72 185.58   A 1.27 1.26 -74.6 0 0 120.69 186.17   L 112.07 200.00   L 107.92 200.00   Q 108.12 198.08 109.23 196.18   A 0.96 0.94 42.0 0 0 109.16 195.11   L 105.84 190.81   A 1.39 1.36 -18.5 0 0 104.75 190.28   L 95.78 190.28   A 2.06 2.03 18.4 0 0 94.15 191.08   L 91.02 195.20   A 0.69 0.67 58.3 0 0 90.90 195.74   L 91.84 200.00   L 87.75 200.00   L 79.73 186.66   A 1.71 1.71 0.0 0 0 78.27 185.84   L 73.73 185.84   A 2.99 2.88 -34.8 0 1 72.80 185.69   L 66.20 183.52   A 0.68 0.67 20.3 0 0 65.37 183.90   L 63.43 188.49   A 0.91 0.90 33.5 0 0 63.64 189.48   L 74.66 200.00   L 47.67 200.00   Q 41.32 194.41 37.93 186.96   A 1.00 1.00 0.0 0 0 37.19 186.39   Q 31.39 185.42 28.99 184.28   Q 15.90 178.09 7.06 166.88   A 4.81 4.79 28.6 0 1 6.05 163.46   Q 7.95 142.72 25.36 132.07   A 1.78 1.73 -58.8 0 1 26.28 131.83   Q 28.15 131.90 29.17 133.68   A 1.30 1.30 0.0 0 0 31.55 132.72   C 30.80 129.65 30.43 126.12 30.88 122.46   Q 31.73 115.63 32.30 112.07   A 3.52 3.50 -1.5 0 1 35.04 109.20   Q 44.09 107.31 52.20 106.02   C 53.06 105.89 53.40 106.17 53.88 106.19   A 0.30 0.30 0.0 0 0 54.06 105.65   Q 53.51 105.27 47.73 100.01   Q 45.77 98.24 44.73 96.47   A 2.92 2.92 0.0 0 1 44.33 95.11   Q 44.13 90.31 44.30 83.75   C 44.39 80.41 47.86 77.82 50.49 75.32   A 1.02 0.99 -22.1 0 0 50.81 74.59   L 50.81 59.67   A 0.86 0.84 16.1 0 0 50.40 58.95   Q 48.72 57.92 48.42 57.00   Q 46.28 50.42 50.27 43.83   Q 57.14 32.49 60.30 27.30   C 66.44 17.21 75.71 14.09 87.00 13.81   A 2.02 1.91 56.4 0 1 87.92 14.02   Q 89.62 14.88 91.50 14.92   Q 100.80 15.12 110.02 14.84   A 1.95 1.92 -60.1 0 0 110.85 14.61   L 111.97 13.99   A 1.46 1.44 -58.6 0 1 112.65 13.82   C 122.83 13.83 133.01 16.75 138.59 25.61   Q 148.77 41.78 151.16 46.88   Q 153.13 51.08 151.41 57.19   Q 151.28 57.65 149.58 58.88   A 0.90 0.88 -18.9 0 0 149.22 59.59   L 149.22 74.68   A 1.53 1.48 -68.7 0 0 149.68 75.77   C 152.24 78.20 155.55 80.70 155.63 84.13   Q 155.72 88.52 155.69 94.01   Q 155.68 96.46 154.60 97.57   Q 153.42 98.77 145.43 105.92   A 0.26 0.26 0.0 0 0 145.58 106.37   Q 145.60 106.37 146.30 106.15   A 3.43 3.28 -47.8 0 1 147.85 106.04   Q 160.99 108.29 165.35 109.40   C 167.37 109.91 167.63 112.25 168.02 114.85   Q 168.80 120.07 169.35 125.58   A 8.31 8.15 -44.4 0 1 169.31 127.56   L 168.55 132.84   A 1.28 1.27 -24.0 0 0 170.87 133.73   C 173.40 129.98 175.79 132.43 178.66 134.74   Q 192.38 145.80 193.82 163.78   A 2.89 2.82 -38.8 0 1 193.69 164.86   Q 192.90 167.22 190.71 169.49   Q 181.98 178.50 172.85 183.34   Q 169.31 185.22 162.76 186.39   A 0.70 0.70 0.0 0 0 162.19 186.98   C 161.51 191.35 156.14 196.94 153.07 200.00   Z   M 143.23 107.91   Q 137.40 113.09 133.95 117.84   A 0.57 0.56 -60.2 0 0 134.18 118.70   L 136.30 119.59   A 0.77 0.77 0.0 0 0 137.27 119.26   L 143.64 108.24   A 0.27 0.27 0.0 0 0 143.23 107.91   Z   M 57.15 108.37   A 0.25 0.25 0.0 0 0 56.76 108.68   L 62.72 119.24   A 0.73 0.73 0.0 0 0 63.64 119.56   L 65.67 118.73   A 0.54 0.54 0.0 0 0 65.90 117.92   Q 62.66 113.36 57.15 108.37   Z"
     id="path6"
     style="fill:#1d2929;fill-opacity:1" />
  <g
     fill="#4f5d3a"
     id="g8">
    <path
       d="   M 87.75 200.00   L 74.66 200.00   L 63.64 189.48   A 0.91 0.90 33.5 0 1 63.43 188.49   L 65.37 183.90   A 0.68 0.67 20.3 0 1 66.20 183.52   L 72.80 185.69   A 2.99 2.88 -34.8 0 0 73.73 185.84   L 78.27 185.84   A 1.71 1.71 0.0 0 1 79.73 186.66   L 87.75 200.00   Z"
       id="path7" />
    <path
       d="   M 107.92 200.00   L 91.84 200.00   L 90.90 195.74   A 0.69 0.67 58.3 0 1 91.02 195.20   L 94.15 191.08   A 2.06 2.03 18.4 0 1 95.78 190.28   L 104.75 190.28   A 1.39 1.36 -18.5 0 1 105.84 190.81   L 109.16 195.11   A 0.96 0.94 42.0 0 1 109.23 196.18   Q 108.12 198.08 107.92 200.00   Z"
       id="path8" />
  </g>
  <path
     fill="#3b4745"
     d="   M 145.24 200.00   L 130.68 200.00   Q 133.53 195.12 138.27 192.13   A 0.74 0.74 0.0 0 1 139.15 192.21   Q 142.86 195.62 145.24 200.00   Z"
     id="path9" />
  <g
     stroke-width="2.00"
     fill="none"
     stroke-linecap="butt"
     id="g40">
    <path
       stroke="#798957"
       vector-effect="non-scaling-stroke"
       d="   M 125.40 20.51   L 125.10 33.86   A 0.38 0.35 25.7 0 0 125.21 34.14   Q 125.48 34.42 125.77 34.46   Q 125.91 34.48 125.99 34.17   Q 126.07 33.90 126.28 33.87"
       id="path10" />
    <path
       stroke="#616f45"
       vector-effect="non-scaling-stroke"
       d="   M 136.32 42.78   L 136.12 44.49"
       id="path11" />
    <path
       stroke="#798957"
       vector-effect="non-scaling-stroke"
       d="   M 136.12 44.49   Q 136.23 43.57 135.29 43.50   Q 125.28 42.79 114.89 42.74"
       id="path12" />
    <path
       stroke="#616f45"
       vector-effect="non-scaling-stroke"
       d="   M 133.97 51.09   L 135.78 46.56"
       id="path13" />
    <path
       stroke="#718254"
       vector-effect="non-scaling-stroke"
       d="   M 136.12 44.49   Q 136.09 46.07 135.78 46.56"
       id="path14" />
    <path
       stroke="#798957"
       vector-effect="non-scaling-stroke"
       d="   M 135.78 46.56   L 114.88 45.71"
       id="path15" />
    <path
       stroke="#718254"
       vector-effect="non-scaling-stroke"
       d="   M 128.48 22.07   Q 128.72 28.61 126.89 33.96"
       id="path16" />
    <path
       stroke="#798957"
       vector-effect="non-scaling-stroke"
       d="   M 85.64 42.79   Q 73.06 42.80 64.59 43.49   Q 64.02 43.53 63.83 44.14"
       id="path17" />
    <path
       stroke="#5c6a41"
       vector-effect="non-scaling-stroke"
       d="   M 63.83 44.14   Q 63.60 43.64 63.64 42.78"
       id="path18" />
    <path
       stroke="#5c6a41"
       vector-effect="non-scaling-stroke"
       d="   M 73.38 34.12   Q 72.91 33.81 72.70 32.79"
       id="path19" />
    <path
       stroke="#727f52"
       vector-effect="non-scaling-stroke"
       d="   M 72.70 32.79   Q 73.67 33.43 74.39 32.67   A 0.98 0.94 70.4 0 0 74.65 32.09   Q 75.07 26.61 73.94 20.89"
       id="path20" />
    <path
       stroke="#798957"
       vector-effect="non-scaling-stroke"
       d="   M 85.63 45.29   L 64.37 46.17"
       id="path21" />
    <path
       stroke="#65734b"
       vector-effect="non-scaling-stroke"
       d="   M 72.70 32.79   Q 71.60 27.10 72.15 21.72"
       id="path22" />
    <path
       stroke="#6c7c50"
       vector-effect="non-scaling-stroke"
       d="   M 63.83 44.14   Q 63.63 45.68 64.37 46.17"
       id="path23" />
    <path
       stroke="#5c6a41"
       vector-effect="non-scaling-stroke"
       d="   M 64.37 46.17   Q 64.38 48.54 65.30 51.19"
       id="path24" />
    <path
       stroke="#e49d33"
       vector-effect="non-scaling-stroke"
       d="   M 83.46 59.20   L 68.18 60.37   A 1.31 1.29 -0.5 0 0 66.98 61.58   Q 66.60 67.00 66.77 71.98   Q 66.83 73.84 68.75 76.00   Q 76.77 85.02 82.50 90.04"
       id="path25" />
    <path
       stroke="#eaa538"
       vector-effect="non-scaling-stroke"
       d="   M 82.50 90.04   Q 84.00 91.22 84.01 92.93"
       id="path26" />
    <path
       stroke="#f6b13b"
       vector-effect="non-scaling-stroke"
       d="   M 88.40 62.65   Q 83.31 67.00 80.19 72.86   A 1.86 1.84 -36.0 0 0 80.00 74.02   L 82.50 90.04"
       id="path27" />
    <path
       stroke="#eaa538"
       vector-effect="non-scaling-stroke"
       d="   M 115.52 92.88   L 132.37 74.94   A 3.51 3.50 66.7 0 0 133.32 72.54   L 133.32 61.69   A 1.02 1.01 2.1 0 0 132.38 60.68   L 118.47 59.64   A 2.14 2.11 28.2 0 0 117.02 60.07   L 114.19 62.26   A 2.32 2.31 26.3 0 1 112.79 62.73   L 88.40 62.65"
       id="path28" />
    <path
       stroke="#e49d33"
       vector-effect="non-scaling-stroke"
       d="   M 88.40 62.65   L 85.23 60.40"
       id="path29" />
    <path
       stroke="#65734b"
       vector-effect="non-scaling-stroke"
       d="   M 88.05 105.84   L 58.01 88.09"
       id="path30" />
    <path
       stroke="#6a784e"
       vector-effect="non-scaling-stroke"
       d="   M 141.99 88.39   Q 139.84 89.36 137.95 90.45   Q 125.71 97.54 113.62 104.87   Q 112.20 105.74 111.51 107.00"
       id="path31" />
    <path
       stroke="#727f52"
       vector-effect="non-scaling-stroke"
       d="   M 110.57 107.43   L 90.23 107.16"
       id="path32" />
    <path
       stroke="#616f45"
       vector-effect="non-scaling-stroke"
       d="   M 158.53 131.26   L 141.25 127.82   A 1.45 1.44 -73.0 0 1 140.20 125.84   L 141.24 123.38   A 2.50 2.49 14.1 0 1 143.79 121.86   L 156.94 123.16"
       id="path33" />
    <path
       stroke="#5c6a41"
       vector-effect="non-scaling-stroke"
       d="   M 60.60 126.62   L 41.33 130.96"
       id="path34" />
    <path
       stroke="#616f45"
       vector-effect="non-scaling-stroke"
       d="   M 155.98 144.01   Q 154.03 146.36 153.40 148.18   Q 150.92 155.28 147.77 161.73"
       id="path35" />
    <path
       stroke="#616f45"
       vector-effect="non-scaling-stroke"
       d="   M 120.50 174.10   L 116.77 177.57"
       id="path36" />
    <path
       stroke="#5c6a41"
       vector-effect="non-scaling-stroke"
       d="   M 83.30 177.31   Q 82.56 176.75 81.10 175.15   Q 80.00 173.93 78.84 174.01"
       id="path37" />
    <path
       stroke="#5c6a41"
       vector-effect="non-scaling-stroke"
       d="   M 51.38 161.74   L 44.45 141.66"
       id="path38" />
    <path
       stroke="#5c6a41"
       vector-effect="non-scaling-stroke"
       d="   M 16.81 170.68   L 27.38 153.01   A 3.39 3.38 51.2 0 0 27.68 150.21   Q 25.89 144.86 21.98 140.44"
       id="path39" />
    <path
       stroke="#5c6a41"
       vector-effect="non-scaling-stroke"
       d="   M 110.68 176.89   L 108.27 181.00   A 1.98 1.97 15.0 0 1 106.56 181.98   L 93.39 181.98   A 1.98 1.97 -15.1 0 1 91.69 181.01   L 89.28 176.88"
       id="path40" />
  </g>
  <g
     fill="#687648"
     id="g52">
    <path
       d="   M 125.40 20.51   L 125.10 33.86   A 0.38 0.35 25.7 0 0 125.21 34.14   Q 125.48 34.42 125.77 34.46   Q 125.91 34.48 125.99 34.17   Q 126.07 33.90 126.28 33.87   Q 126.15 34.75 127.06 35.46   Q 131.65 39.02 136.32 42.78   L 136.12 44.49   Q 136.23 43.57 135.29 43.50   Q 125.28 42.79 114.89 42.74   L 114.90 18.58   A 0.25 0.25 0.0 0 1 115.17 18.33   Q 121.00 18.82 125.40 20.51   Z"
       id="path41" />
    <path
       d="   M 85.64 42.79   Q 73.06 42.80 64.59 43.49   Q 64.02 43.53 63.83 44.14   Q 63.60 43.64 63.64 42.78   Q 68.54 39.07 73.27 35.28   Q 74.00 34.69 73.38 34.12   Q 72.91 33.81 72.70 32.79   Q 73.67 33.43 74.39 32.67   A 0.98 0.94 70.4 0 0 74.65 32.09   Q 75.07 26.61 73.94 20.89   Q 79.45 18.74 85.37 18.47   A 0.28 0.28 0.0 0 1 85.66 18.75   L 85.64 42.79   Z"
       id="path42" />
    <path
       d="   M 85.63 45.29   Q 86.00 47.27 85.37 49.70   A 0.70 0.69 -84.2 0 1 84.74 50.22   L 65.30 51.19   Q 64.38 48.54 64.37 46.17   L 85.63 45.29   Z"
       id="path43" />
    <path
       d="   M 114.88 45.71   L 135.78 46.56   L 133.97 51.09   L 115.56 49.97   A 0.59 0.59 0.0 0 1 115.00 49.40   L 114.88 45.71   Z"
       id="path44" />
    <path
       d="   M 55.20 100.27   A 0.41 0.41 0.0 0 1 54.63 100.31   L 49.34 95.72   A 2.24 2.21 21.0 0 1 48.57 94.02   L 48.67 84.54   A 1.41 1.39 -24.5 0 1 49.02 83.63   L 52.67 79.42   A 1.17 1.17 0.0 0 1 54.32 79.30   L 56.10 80.84   A 1.08 1.08 0.0 0 1 56.21 82.36   L 53.09 85.96   A 1.15 1.14 -25.0 0 0 52.83 86.68   L 52.73 95.34   A 2.42 2.39 -63.2 0 0 53.20 96.79   L 55.39 99.74   A 0.27 0.27 0.0 0 1 55.38 100.06   L 55.20 100.27   Z"
       id="path45" />
    <path
       d="   M 90.23 107.16   L 110.57 107.43   L 108.79 129.50   A 0.53 0.52 2.3 0 1 108.26 129.98   L 91.70 129.98   A 0.65 0.65 0.0 0 1 91.05 129.36   L 90.23 107.16   Z"
       id="path46" />
    <path
       d="   M 156.94 123.16   L 143.79 121.86   A 2.50 2.49 14.1 0 0 141.24 123.38   L 140.20 125.84   A 1.45 1.44 -73.0 0 0 141.25 127.82   L 158.53 131.26   L 156.76 137.04   A 0.74 0.73 13.6 0 1 155.92 137.55   L 152.81 136.99   A 0.79 0.78 -89.0 0 1 152.17 136.32   L 151.82 133.79   A 1.06 1.05 1.5 0 0 150.96 132.89   L 139.00 130.74   A 1.30 1.30 0.0 0 1 138.04 128.96   L 140.88 122.20   A 2.16 2.16 0.0 0 1 143.21 120.91   L 156.94 123.16   Z"
       id="path47" />
    <path
       d="   M 60.60 126.62   L 61.75 129.18   A 1.01 1.00 73.3 0 1 61.00 130.58   Q 55.99 131.43 49.30 133.00   Q 47.13 133.51 47.86 136.11   A 0.75 0.75 0.0 0 1 47.24 137.05   L 44.10 137.48   A 0.82 0.81 -12.2 0 1 43.21 136.92   L 41.33 130.96   L 60.60 126.62   Z"
       id="path48" />
    <path
       d="   M 155.98 144.01   Q 154.03 146.36 153.40 148.18   Q 150.92 155.28 147.77 161.73   C 138.46 165.48 128.99 168.84 120.50 174.10   L 116.77 177.57   L 112.11 173.57   A 2.35 2.32 66.1 0 0 110.68 173.01   Q 104.11 172.78 91.01 172.93   C 87.48 172.97 85.67 175.19 83.30 177.31   Q 82.56 176.75 81.10 175.15   Q 80.00 173.93 78.84 174.01   Q 75.40 171.64 71.99 170.02   Q 62.11 165.32 51.38 161.74   L 44.45 141.66   Q 42.89 139.85 48.03 139.81   A 0.77 0.74 75.1 0 1 48.71 140.22   L 50.61 143.86   A 1.20 1.20 0.0 0 0 51.89 144.48   L 66.94 141.65   A 0.97 0.97 0.0 0 0 67.71 140.52   L 66.04 131.61   A 0.26 0.26 0.0 0 1 66.50 131.41   Q 75.47 142.94 87.90 149.23   A 2.94 2.92 11.1 0 1 89.50 151.59   L 90.51 162.63   A 0.35 0.35 0.0 0 1 89.89 162.88   L 87.34 159.57   A 0.63 0.62 -48.6 0 0 86.31 159.64   L 85.37 161.27   A 1.61 1.60 36.3 0 0 85.68 163.25   C 87.96 165.33 89.79 167.77 93.50 167.92   Q 101.06 168.23 108.57 167.72   A 2.07 2.04 -66.9 0 0 109.74 167.24   L 114.42 163.27   A 0.79 0.74 -9.4 0 0 114.62 163.01   Q 115.16 161.77 113.52 159.84   A 0.76 0.76 0.0 0 0 112.25 160.02   Q 111.26 162.14 109.85 163.44   A 0.34 0.34 0.0 0 1 109.29 163.15   L 110.70 151.61   A 3.12 3.12 0.0 0 1 112.32 149.23   Q 121.29 144.35 128.46 137.23   C 130.26 135.44 132.13 132.72 133.43 131.25   A 0.48 0.48 0.0 0 1 134.25 131.70   L 131.87 139.53   A 1.73 1.73 0.0 0 0 133.22 141.74   L 148.04 144.41   A 1.57 1.56 -76.3 0 0 149.82 143.32   L 150.71 140.38   A 0.98 0.98 0.0 0 1 151.77 139.69   L 155.11 140.09   A 0.78 0.77 2.2 0 1 155.79 140.82   L 155.98 144.01   Z"
       id="path49" />
    <path
       d="   M 174.69 137.65   Q 186.94 145.92 189.20 160.79   Q 189.45 162.49 189.08 164.15   A 2.80 2.76 -18.8 0 1 188.49 165.33   Q 186.06 168.21 181.52 172.14   C 179.18 174.16 178.20 171.92 176.89 170.41   Q 174.66 167.86 169.45 161.56   A 2.04 1.95 -72.8 0 1 169.05 160.76   L 166.76 151.21   A 2.07 2.06 53.4 0 1 166.98 149.70   L 173.82 137.85   A 0.62 0.61 31.5 0 1 174.69 137.65   Z"
       id="path50" />
    <path
       d="   M 16.81 170.68   L 27.38 153.01   A 3.39 3.38 51.2 0 0 27.68 150.21   Q 25.89 144.86 21.98 140.44   L 25.39 137.72   A 0.66 0.66 0.0 0 1 26.38 137.92   Q 28.95 142.74 32.12 148.40   Q 33.30 150.49 32.96 152.04   Q 32.04 156.20 30.86 160.15   A 5.67 5.60 74.4 0 1 29.74 162.17   L 20.80 172.54   A 1.27 1.27 0.0 0 1 19.20 172.81   Q 17.77 171.97 16.81 170.68   Z"
       id="path51" />
    <path
       d="   M 89.28 176.88   L 91.69 181.01   A 1.98 1.97 -15.1 0 0 93.39 181.98   L 106.56 181.98   A 1.98 1.97 15.0 0 0 108.27 181.00   L 110.68 176.89   L 118.39 183.68   A 0.54 0.53 -50.6 0 1 118.46 184.41   L 112.60 192.11   A 0.42 0.42 0.0 0 1 111.93 192.11   L 108.46 187.61   A 2.95 2.93 70.6 0 0 106.10 186.47   Q 101.34 186.52 94.48 186.47   Q 91.95 186.45 90.76 188.50   Q 89.29 191.04 88.36 192.21   A 0.54 0.53 44.7 0 1 87.51 192.21   L 81.63 184.59   A 0.68 0.66 -39.8 0 1 81.72 183.68   L 89.28 176.88   Z"
       id="path52" />
  </g>
  <path
     fill="#fcb940"
     d="   M 115.52 92.88   L 110.23 87.36   A 2.47 2.44 68.0 0 0 108.45 86.59   L 91.63 86.59   A 2.03 2.02 22.7 0 0 90.21 87.17   Q 87.84 89.51 85.00 92.70   Q 84.71 93.02 84.01 92.93   Q 84.00 91.22 82.50 90.04   L 80.00 74.02   A 1.86 1.84 -36.0 0 1 80.19 72.86   Q 83.31 67.00 88.40 62.65   L 112.79 62.73   A 2.32 2.31 26.3 0 0 114.19 62.26   L 117.02 60.07   A 2.14 2.11 28.2 0 1 118.47 59.64   L 132.38 60.68   A 1.02 1.01 2.1 0 1 133.32 61.69   L 133.32 72.54   A 3.51 3.50 66.7 0 1 132.37 74.94   L 115.52 92.88   Z"
     id="path53" />
  <g
     fill="#4f5d3a"
     id="g66"
     style="fill:#444f33;fill-opacity:1">
    <path
       d="   M 72.15 21.72   Q 71.60 27.10 72.70 32.79   Q 72.91 33.81 73.38 34.12   Q 65.50 36.63 58.53 40.83   A 0.40 0.40 0.0 0 1 57.98 40.28   Q 61.46 34.26 64.90 28.90   Q 67.89 24.24 72.15 21.72   Z"
       id="path54"
       style="fill:#444f33;fill-opacity:1" />
    <path
       d="   M 63.64 42.78   Q 63.60 43.64 63.83 44.14   Q 63.63 45.68 64.37 46.17   Q 64.38 48.54 65.30 51.19   L 53.78 54.20   A 1.33 1.32 -16.1 0 1 52.18 53.32   Q 51.26 50.40 52.86 47.36   A 1.92 1.90 88.2 0 1 53.53 46.64   C 57.40 44.25 59.90 43.89 63.64 42.78   Z"
       id="path55"
       style="fill:#444f33;fill-opacity:1" />
    <path
       d="   M 57.18 77.98   L 56.26 77.19   A 2.61 2.61 0.0 0 1 55.36 75.22   L 55.36 60.46   A 1.71 1.71 0.0 0 1 56.35 58.91   L 56.77 58.72   A 0.87 0.87 0.0 0 1 58.01 59.51   L 58.01 77.60   A 0.50 0.50 0.0 0 1 57.18 77.98   Z"
       id="path56"
       style="fill:#444f33;fill-opacity:1" />
    <path
       d="   M 88.05 105.84   L 80.28 116.83   A 0.57 0.57 0.0 0 1 79.36 116.84   Q 72.34 107.54 62.83 100.55   A 0.70 0.70 0.0 0 0 61.72 101.24   L 62.63 106.08   A 0.43 0.43 0.0 0 1 61.93 106.48   L 59.03 103.98   A 3.41 3.38 -69.5 0 1 57.85 101.36   L 58.01 88.09   L 88.05 105.84   Z"
       id="path57"
       style="fill:#444f33;fill-opacity:1" />
    <path
       d="   M 81.03 122.66   A 0.32 0.32 0.0 0 1 80.54 122.91   C 77.44 120.90 66.08 113.33 65.70 109.70   A 0.53 0.53 0.0 0 1 66.46 109.17   C 72.26 112.02 77.41 117.22 80.71 121.80   Q 81.05 122.27 81.03 122.66   Z"
       id="path58"
       style="fill:#444f33;fill-opacity:1" />
    <path
       d="   M 60.60 126.62   L 41.33 130.96   L 35.71 124.91   A 1.82 1.79 -63.5 0 1 35.24 123.46   L 36.34 114.47   A 1.47 1.47 0.0 0 1 37.61 113.18   L 52.11 111.18   A 1.33 1.32 -17.6 0 1 53.47 111.88   L 56.72 118.09   A 0.56 0.55 79.6 0 1 56.17 118.90   L 55.10 118.77   A 1.94 1.93 -10.1 0 1 53.60 117.73   L 51.57 113.86   A 0.85 0.85 0.0 0 0 50.69 113.41   L 40.14 114.86   A 1.41 1.41 0.0 0 0 38.91 116.26   L 38.91 121.64   A 1.63 1.62 -1.7 0 0 40.63 123.26   Q 45.55 122.96 53.24 121.06   Q 54.85 120.66 57.79 121.13   A 0.99 0.98 -6.5 0 1 58.54 121.72   L 60.60 126.62   Z"
       id="path59"
       style="fill:#444f33;fill-opacity:1" />
    <path
       d="   M 85.87 125.73   L 81.72 119.97   A 0.60 0.60 0.0 0 1 81.72 119.27   L 85.84 113.49   A 0.60 0.60 0.0 0 1 86.93 113.84   L 86.95 125.37   A 0.60 0.60 0.0 0 1 85.87 125.73   Z"
       id="path60"
       style="fill:#444f33;fill-opacity:1" />
    <path
       d="   M 36.56 131.53   A 0.15 0.15 0.0 0 1 36.67 131.35   L 36.74 131.33   A 6.49 2.20 77.7 0 1 40.27 137.21   L 40.33 137.50   A 6.49 2.20 77.7 0 1 39.57 144.31   L 39.50 144.32   A 0.15 0.15 0.0 0 1 39.32 144.21   L 36.56 131.53   Z"
       id="path61"
       style="fill:#444f33;fill-opacity:1" />
    <path
       d="   M 21.98 140.44   Q 25.89 144.86 27.68 150.21   A 3.39 3.38 51.2 0 1 27.38 153.01   L 16.81 170.68   Q 13.03 168.07 11.02 164.55   A 2.24 2.19 32.0 0 1 10.74 163.40   Q 11.26 149.46 21.98 140.44   Z"
       id="path62"
       style="fill:#444f33;fill-opacity:1" />
    <path
       d="   M 51.38 161.74   L 45.65 170.15   A 0.16 0.16 0.0 0 1 45.36 170.09   L 41.97 152.03   A 6.26 6.23 48.5 0 1 42.15 148.96   L 44.45 141.66   L 51.38 161.74   Z"
       id="path63"
       style="fill:#444f33;fill-opacity:1" />
    <path
       d="   M 78.84 174.01   Q 80.00 173.93 81.10 175.15   Q 82.56 176.75 83.30 177.31   C 80.55 179.60 76.82 182.68 73.51 181.76   C 72.31 181.43 71.60 179.94 70.56 179.23   A 1.88 1.83 -27.4 0 0 69.33 178.86   L 64.75 179.14   A 1.87 1.84 24.1 0 0 63.70 179.53   Q 62.83 180.22 61.99 182.12   A 1.18 1.18 0.0 0 1 61.15 182.79   C 58.49 183.35 56.54 183.14 54.24 181.11   Q 49.15 176.61 46.74 174.34   A 0.74 0.73 -51.9 0 1 46.63 173.40   Q 48.41 170.69 50.73 166.49   Q 51.86 164.44 53.94 165.30   Q 63.22 169.14 72.25 172.80   Q 75.51 174.13 78.84 174.01   Z"
       id="path64"
       style="fill:#444f33;fill-opacity:1" />
    <path
       d="   M 110.68 176.89   L 108.27 181.00   A 1.98 1.97 15.0 0 1 106.56 181.98   L 93.39 181.98   A 1.98 1.97 -15.1 0 1 91.69 181.01   L 89.28 176.88   Q 99.98 176.02 110.68 176.89   Z"
       id="path65"
       style="fill:#444f33;fill-opacity:1" />
    <path
       d="   M 60.42 187.10   L 52.24 196.76   A 0.94 0.93 -50.5 0 1 50.95 196.89   Q 46.48 193.23 44.24 188.54   A 2.23 2.22 51.1 0 1 44.48 186.23   L 48.09 181.55   A 0.55 0.54 -51.9 0 1 48.85 181.45   L 54.19 185.56   A 1.96 1.94 -23.2 0 0 55.15 185.94   L 60.13 186.39   A 0.43 0.43 0.0 0 1 60.42 187.10   Z"
       id="path66"
       style="fill:#444f33;fill-opacity:1" />
  </g>
  <g
     fill="#3b4745"
     id="g72">
    <rect
       x="-7.35"
       y="-0.81"
       transform="translate(100.37,91.33) rotate(0.1)"
       width="14.70"
       height="1.62"
       rx="0.78"
       id="rect66" />
    <ellipse
       cx="0.00"
       cy="0.00"
       transform="translate(109.49,95.13) rotate(-88.1)"
       rx="1.43"
       ry="1.28"
       id="ellipse66" />
    <rect
       x="-1.03"
       y="-1.54"
       transform="translate(90.46,95.79) rotate(36.1)"
       width="2.06"
       height="3.08"
       rx="0.82"
       id="rect67" />
    <rect
       x="-5.80"
       y="-1.99"
       transform="translate(100.06,98.05) rotate(-0.2)"
       width="11.60"
       height="3.98"
       rx="0.45"
       id="rect68" />
    <path
       d="   M 101.63 142.66   A 0.14 0.14 0.0 0 1 101.56 142.41   L 127.22 122.61   A 0.45 0.45 0.0 0 1 127.94 122.97   C 127.94 128.36 125.74 132.49 121.68 136.68   Q 118.77 139.70 113.61 141.04   Q 106.53 142.88 101.63 142.66   Z"
       id="path68" />
    <path
       d="   M 58.29 139.59   Q 54.97 140.27 54.21 140.41   A 1.00 0.99 -19.1 0 1 53.14 139.90   L 51.51 136.78   A 0.77 0.77 0.0 0 1 52.04 135.67   Q 54.71 135.15 57.00 134.68   Q 60.32 134.00 61.08 133.85   A 1.00 0.99 -19.1 0 1 62.15 134.37   L 63.78 137.49   A 0.77 0.77 0.0 0 1 63.25 138.60   Q 60.58 139.12 58.29 139.59   Z"
       id="path69" />
    <path
       d="   M 148.54 137.01   L 147.33 139.90   A 0.92 0.92 0.0 0 1 146.32 140.45   L 136.58 138.70   A 0.92 0.92 0.0 0 1 135.90 137.44   L 137.11 134.54   A 0.92 0.92 0.0 0 1 138.13 133.99   L 147.86 135.75   A 0.92 0.92 0.0 0 1 148.54 137.01   Z"
       id="path70" />
    <rect
       x="-6.52"
       y="-3.33"
       transform="translate(100.09,161.40) rotate(0.2)"
       width="13.04"
       height="6.66"
       rx="1.17"
       id="rect70" />
    <path
       d="   M 36.83 163.38   A 0.53 0.53 0.0 0 1 37.56 163.91   L 36.36 179.96   A 1.08 1.07 5.1 0 1 35.17 180.95   Q 29.09 180.34 24.04 176.24   A 0.70 0.69 33.9 0 1 23.86 175.36   Q 28.56 166.90 36.83 163.38   Z"
       id="path71" />
    <path
       d="   M 162.85 163.42   Q 171.14 166.93 175.86 175.39   A 0.71 0.69 -34.0 0 1 175.68 176.27   Q 170.63 180.39 164.55 181.01   A 1.08 1.08 0.0 0 1 163.35 180.02   L 162.12 163.95   A 0.53 0.53 0.0 0 1 162.85 163.42   Z"
       id="path72" />
  </g>
  <g
     fill="#d8912f"
     id="g74"
     style="fill:#d78f2b;fill-opacity:1">
    <path
       d="   M 83.46 59.20   L 68.18 60.37   A 1.31 1.29 -0.5 0 0 66.98 61.58   Q 66.60 67.00 66.77 71.98   Q 66.83 73.84 68.75 76.00   Q 76.77 85.02 82.50 90.04   Q 84.00 91.22 84.01 92.93   Q 83.25 93.17 82.82 92.94   Q 77.88 90.32 72.42 86.61   Q 69.94 84.94 69.04 83.92   A 0.96 0.72 18.6 0 1 68.91 83.73   L 62.96 72.37   A 2.05 1.99 -59.4 0 1 62.74 71.45   L 62.74 58.05   A 1.58 1.57 -4.0 0 1 64.10 56.49   Q 69.90 55.67 76.24 55.20   Q 78.18 55.05 79.61 55.43   A 1.57 1.51 74.7 0 1 80.35 55.87   L 83.46 59.20   Z"
       id="path73"
       style="fill:#d78f2b;fill-opacity:1" />
    <path
       d="   M 115.52 92.88   L 132.37 74.94   A 3.51 3.50 66.7 0 0 133.32 72.54   L 133.32 61.69   A 1.02 1.01 2.1 0 0 132.38 60.68   L 118.47 59.64   A 2.14 2.11 28.2 0 0 117.02 60.07   L 114.19 62.26   A 2.32 2.31 26.3 0 1 112.79 62.73   L 88.40 62.65   L 85.23 60.40   L 113.05 60.38   A 3.66 3.64 -65.0 0 0 115.40 59.52   L 120.47 55.23   A 0.50 0.49 25.7 0 1 120.82 55.11   L 135.30 56.19   A 1.92 1.91 -87.9 0 1 137.07 58.10   L 137.08 71.98   A 3.44 3.38 -31.1 0 1 136.64 73.69   C 135.68 75.56 133.72 78.57 132.67 81.08   Q 131.49 83.90 130.73 84.50   Q 127.18 87.32 118.70 92.17   Q 116.89 93.20 115.52 92.88   Z"
       id="path74"
       style="fill:#d78f2b;fill-opacity:1" />
  </g>
  <g
     fill="#7b885b"
     id="g78">
    <path
       d="   M 73.94 20.89   Q 75.07 26.61 74.65 32.09   A 0.98 0.94 70.4 0 1 74.39 32.67   Q 73.67 33.43 72.70 32.79   Q 71.60 27.10 72.15 21.72   L 73.94 20.89   Z"
       id="path75" />
    <path
       d="   M 144.40 100.45   L 144.22 100.24   A 0.27 0.27 0.0 0 1 144.21 99.91   L 146.47 96.94   A 2.46 2.43 63.8 0 0 146.96 95.47   L 146.96 86.68   A 1.16 1.15 25.7 0 0 146.70 85.95   L 143.57 82.26   A 1.10 1.10 0.0 0 1 143.70 80.71   L 145.52 79.17   A 1.19 1.19 0.0 0 1 147.20 79.31   L 150.86 83.63   A 1.43 1.41 25.1 0 1 151.20 84.55   L 151.20 94.18   A 2.27 2.25 -20.4 0 1 150.40 95.90   L 144.98 100.50   A 0.42 0.41 49.5 0 1 144.40 100.45   Z"
       id="path76" />
    <path
       d="   M 88.05 105.84   L 58.01 88.09   Q 57.69 86.99 58.14 85.75   A 1.95 1.87 78.5 0 1 58.55 85.10   L 62.14 81.47   A 0.81 0.80 -30.9 0 1 63.48 81.80   C 64.39 84.81 64.72 86.06 67.27 88.11   Q 76.64 95.66 87.01 100.36   A 2.19 2.17 -7.3 0 1 87.79 100.96   Q 90.73 104.58 88.05 105.84   Z"
       id="path77" />
    <path
       d="   M 141.99 88.39   Q 139.84 89.36 137.95 90.45   Q 125.71 97.54 113.62 104.87   Q 112.20 105.74 111.51 107.00   Q 110.40 108.08 110.57 107.43   L 90.23 107.16   Q 91.75 104.66 93.12 103.76   A 2.05 1.98 27.5 0 1 94.23 103.43   L 108.81 103.43   A 2.43 2.43 0.0 0 0 110.76 102.45   L 111.87 100.95   A 1.69 1.69 0.0 0 1 112.56 100.45   C 118.97 98.04 127.71 92.53 134.68 86.69   A 3.07 3.07 0.0 0 0 135.56 85.49   L 137.25 81.48   A 0.43 0.42 -56.0 0 1 137.94 81.34   L 141.60 84.99   A 1.36 1.31 16.1 0 1 141.95 85.60   Q 142.35 87.02 141.99 88.39   Z"
       id="path78" />
  </g>
  <g
     fill="#596841"
     id="g90">
    <rect
       x="89.25"
       y="19.69"
       width="21.68"
       height="15.20"
       rx="0.76"
       id="rect78" />
    <path
       d="   M 126.89 33.96   Q 128.72 28.61 128.48 22.07   Q 132.17 24.42 135.67 29.82   Q 139.04 35.01 141.90 40.33   A 0.28 0.28 0.0 0 1 141.54 40.72   L 126.89 33.96   Z"
       id="path79" />
    <rect
       x="-10.92"
       y="-2.01"
       transform="translate(100.10,40.00) rotate(0.1)"
       width="21.84"
       height="4.02"
       rx="1.19"
       id="rect79" />
    <path
       d="   M 133.97 51.09   L 135.78 46.56   Q 136.09 46.07 136.12 44.49   L 136.32 42.78   Q 139.38 43.81 142.62 44.87   Q 149.14 47.01 147.52 53.43   A 1.10 1.09 18.5 0 1 146.03 54.17   Q 140.15 51.72 133.97 51.09   Z"
       id="path80" />
    <path
       d="   M 110.92 46.84   L 110.57 48.77   A 1.44 1.44 0.0 0 1 109.16 49.95   L 91.00 49.95   A 1.44 1.44 0.0 0 1 89.58 48.77   L 89.22 46.84   A 1.44 1.44 0.0 0 1 90.63 45.14   L 109.51 45.14   A 1.44 1.44 0.0 0 1 110.92 46.84   Z"
       id="path81" />
    <path
       d="   M 113.46 55.82   L 112.25 57.21   A 1.08 1.08 0.0 0 1 111.44 57.58   L 88.66 57.58   A 1.08 1.08 0.0 0 1 87.96 57.32   L 86.34 55.93   A 1.08 1.08 0.0 0 1 87.05 54.03   L 112.64 54.03   A 1.08 1.08 0.0 0 1 113.46 55.82   Z"
       id="path82" />
    <path
       d="   M 141.54 78.17   L 141.54 59.39   A 0.74 0.74 0.0 0 1 142.49 58.68   L 143.82 59.08   A 1.34 1.33 -81.5 0 1 144.76 60.36   L 144.76 75.56   A 1.95 1.93 69.9 0 1 144.08 77.04   L 142.32 78.53   A 0.47 0.47 0.0 0 1 141.54 78.17   Z"
       id="path83" />
    <path
       d="   M 141.99 88.39   L 141.92 102.06   A 1.40 1.36 70.8 0 1 141.44 103.09   L 138.11 105.91   A 0.34 0.34 0.0 0 1 137.56 105.59   L 138.38 101.07   A 0.72 0.72 0.0 0 0 137.23 100.37   Q 123.36 110.93 114.36 124.96   A 0.26 0.26 0.0 0 1 113.89 124.89   Q 113.52 123.50 113.60 121.94   Q 113.89 116.46 113.98 111.03   Q 114.03 107.97 111.51 107.00   Q 112.20 105.74 113.62 104.87   Q 125.71 97.54 137.95 90.45   Q 139.84 89.36 141.99 88.39   Z"
       id="path84" />
    <path
       d="   M 119.29 122.41   Q 119.27 122.03 119.60 121.57   C 122.80 117.12 127.80 112.07 133.42 109.30   A 0.52 0.51 -9.8 0 1 134.16 109.81   C 133.80 113.34 122.77 120.70 119.76 122.65   A 0.31 0.31 0.0 0 1 119.29 122.41   Z"
       id="path85" />
    <path
       d="   M 158.53 131.26   L 141.25 127.82   A 1.45 1.44 -73.0 0 1 140.20 125.84   L 141.24 123.38   A 2.50 2.49 14.1 0 1 143.79 121.86   L 156.94 123.16   L 159.99 123.16   A 1.32 1.32 0.0 0 0 161.31 121.84   L 161.31 116.38   A 1.42 1.41 -84.9 0 0 160.15 114.98   L 149.86 113.13   A 1.09 1.08 20.0 0 0 148.72 113.66   L 146.09 118.20   A 0.94 0.93 -75.0 0 1 145.28 118.67   L 143.92 118.67   A 0.51 0.51 0.0 0 1 143.45 117.96   L 145.81 112.34   A 2.43 2.42 16.4 0 1 148.47 110.90   L 162.57 113.44   A 1.13 1.12 1.5 0 1 163.48 114.39   L 164.72 123.42   A 1.81 1.81 0.0 0 1 164.28 124.86   L 158.53 131.26   Z"
       id="path86" />
    <path
       d="   M 160.44 144.75   A 0.10 0.10 0.0 0 1 160.32 144.83   L 160.29 144.82   A 6.13 2.21 -77.7 0 1 159.43 138.36   L 159.78 136.78   A 6.13 2.21 -77.7 0 1 163.24 131.26   L 163.27 131.27   A 0.10 0.10 0.0 0 1 163.35 131.39   L 160.44 144.75   Z"
       id="path87" />
    <path
       d="   M 147.77 161.73   Q 150.92 155.28 153.40 148.18   Q 154.03 146.36 155.98 144.01   Q 159.04 149.46 157.89 153.85   Q 155.78 161.88 154.88 169.84   A 0.52 0.52 0.0 0 1 153.94 170.09   L 147.77 161.73   Z"
       id="path88" />
    <path
       d="   M 116.77 177.57   L 120.50 174.10   Q 125.36 173.32 128.76 172.02   Q 137.74 168.59 146.74 165.09   A 1.34 1.33 -29.4 0 1 148.29 165.52   L 153.71 172.55   A 1.38 1.38 0.0 0 1 153.56 174.41   Q 150.15 177.61 144.63 182.13   Q 142.82 183.61 139.36 182.97   A 0.80 0.76 75.1 0 1 138.87 182.67   L 136.78 179.96   A 0.85 0.84 73.9 0 0 136.21 179.64   L 131.10 179.02   A 1.83 1.81 -65.8 0 0 129.50 179.64   L 128.05 181.32   A 3.52 3.51 31.4 0 1 124.05 182.28   Q 119.96 180.63 116.77 177.57   Z"
       id="path89" />
    <path
       d="   M 139.32 187.15   A 0.45 0.44 67.6 0 1 139.62 186.42   L 144.76 185.95   A 2.02 2.00 23.2 0 0 145.75 185.56   L 151.26 181.31   A 0.56 0.56 0.0 0 1 152.05 181.41   L 155.78 186.24   A 2.30 2.29 -51.1 0 1 156.03 188.62   Q 153.73 193.47 149.12 197.25   A 0.97 0.96 50.4 0 1 147.78 197.12   L 139.32 187.15   Z"
       id="path90" />
  </g>
  <path
     fill="#efa836"
     d="   M 83.46 59.20   L 85.23 60.40   L 88.40 62.65   Q 83.31 67.00 80.19 72.86   A 1.86 1.84 -36.0 0 0 80.00 74.02   L 82.50 90.04   Q 76.77 85.02 68.75 76.00   Q 66.83 73.84 66.77 71.98   Q 66.60 67.00 66.98 61.58   A 1.31 1.29 -0.5 0 1 68.18 60.37   L 83.46 59.20   Z"
     id="path91" />
  <g
     fill="#899b66"
     id="g94">
    <path
       d="   M 125.40 20.51   L 128.48 22.07   Q 128.72 28.61 126.89 33.96   Q 126.58 33.92 126.28 33.87   Q 126.07 33.90 125.99 34.17   Q 125.91 34.48 125.77 34.46   Q 125.48 34.42 125.21 34.14   A 0.38 0.35 25.7 0 1 125.10 33.86   L 125.40 20.51   Z"
       id="path92" />
    <path
       d="   M 85.64 42.79   Q 85.37 44.13 85.63 45.29   L 64.37 46.17   Q 63.63 45.68 63.83 44.14   Q 64.02 43.53 64.59 43.49   Q 73.06 42.80 85.64 42.79   Z"
       id="path93" />
    <path
       d="   M 136.12 44.49   Q 136.09 46.07 135.78 46.56   L 114.88 45.71   L 114.89 42.74   Q 125.28 42.79 135.29 43.50   Q 136.23 43.57 136.12 44.49   Z"
       id="path94" />
  </g>
</svg>
